<svg cache-id="c9b17ee2a8b04fa796eddd7287fe53a0" id="ezF4CG8ALp51" xmlns="http://www.w3.org/2000/svg" xmlns:xlink="http://www.w3.org/1999/xlink" viewBox="0 0 700 400" shape-rendering="geometricPrecision" text-rendering="geometricPrecision" style="background-color:#fff"><g transform="matrix(.531133 0 0 0.531133-11.964605 9.632507)"><rect id="ezF4CG8ALp53" width="32.575398" height="37.120802" rx="0" ry="0" transform="matrix(2.459949 0 0 1 953.077215 428.263033)" fill="#fff" stroke-width="0" stroke-miterlimit="1"/><g transform="translate(0 0.000001)"><path id="ezF4CG8ALp55" d="M494.631518,449.247374l496.432561-.082475" transform="translate(-13-3)" opacity="0" fill="none" stroke="#000" stroke-width="14" stroke-linecap="round" stroke-linejoin="round" stroke-miterlimit="1" stroke-dashoffset="496.43" stroke-dasharray="496.43"/><path id="ezF4CG8ALp56" d="M484.631518,449.247374l495.432561-.082475" transform="matrix(-1 0 0 1 1462.201438-3)" opacity="0" fill="none" stroke="#000" stroke-width="14" stroke-linecap="round" stroke-linejoin="round" stroke-miterlimit="1" stroke-dashoffset="496.43" stroke-dasharray="496.43"/></g><g transform="translate(0 0.000001)"><g transform="translate(67.181117 9.07853)"><path id="ezF4CG8ALp59" d="M482.9,352.8c9,0,15.6.6,19.7,1.7s7,2.4,8.8,4c3.9,3.4,5.9,8.5,5.9,15.5c0,5.2-2.8,10.1-8.4,14.8c7.1,3.6,10.7,10.3,10.7,20.1c0,7.6-2.5,13.3-7.5,17s-12.5,5.8-22.4,6.1h-32.7l-1.1-9.5c1-1.3,3.1-2.6,6.3-3.8v-52.4c-3.1-1.1-5.2-2.4-6.3-3.9l1.1-9.5h25.9Zm1.6,12.6h-6v19.8h9.4c3.9,0,6.9-1,8.9-3c2.1-2,3.1-4.4,3.1-7.3s-.7-5-2.2-6.5-3.1-2.3-5-2.6-4.6-.4-8.2-.4Zm4.2,32.3h-10.2v21.8h7.9c5.2,0,9.1-.8,11.8-2.3s4-4.3,4-8.3-1.1-6.8-3.2-8.6c-2-1.7-5.5-2.6-10.3-2.6Z" fill="#ffb401" stroke-miterlimit="1"/><path id="ezF4CG8ALp510" d="M553.3,432.9c-9.2,0-16.1-2.4-20.7-7.3s-6.9-12-6.9-21.3c0-5.7.8-10.5,2.4-14.6s3.8-7.2,6.5-9.5c5.4-4.3,11.6-6.4,18.7-6.4s12.6,1.8,16.3,5.4c3.8,3.6,5.7,10.2,5.7,19.6c0,5.5-2.7,8.3-8.1,8.3h-24.9c.3,4.8,1.5,8.2,3.7,10.2s5.6,3,10.4,3c2.6,0,5.1-.3,7.5-.9s4.1-1.2,5.2-1.8l1.6-.9l3.4,9.2c-.5.5-1.1,1.2-2,2s-3.1,1.9-6.7,3.2-7.6,1.8-12.1,1.8Zm7.2-36.1c.2-1.1.2-2.4.2-3.9s-.6-3.2-1.8-4.9-3.3-2.6-6.4-2.6c-3,0-5.3.9-6.9,2.8-1.6,1.8-2.7,4.9-3.2,9.3l18.1-.7Z" fill="#ffb401" stroke-miterlimit="1"/><path id="ezF4CG8ALp511" d="M608.7,432.9c-9.2,0-16.1-2.4-20.7-7.3s-6.9-12-6.9-21.3c0-5.7.8-10.5,2.4-14.6s3.8-7.2,6.5-9.5c5.4-4.3,11.6-6.4,18.7-6.4s12.6,1.8,16.3,5.4c3.8,3.6,5.7,10.2,5.7,19.6c0,5.5-2.7,8.3-8.1,8.3h-24.9c.3,4.8,1.5,8.2,3.7,10.2s5.6,3,10.4,3c2.6,0,5.1-.3,7.5-.9s4.1-1.2,5.2-1.8l1.6-.9l3.4,9.2c-.5.5-1.1,1.2-2,2s-3.1,1.9-6.7,3.2c-3.6,1.1-7.6,1.8-12.1,1.8Zm7.2-36.1c.2-1.1.2-2.4.2-3.9s-.6-3.2-1.8-4.9-3.3-2.6-6.4-2.6c-3,0-5.3.9-6.9,2.8-1.6,1.8-2.7,4.9-3.2,9.3l18.1-.7Z" fill="#ffb401" stroke-miterlimit="1"/><path id="ezF4CG8ALp512" d="M675.3,352.8l1.1,9.5c-1.2,1.5-3.3,2.8-6.3,3.9v52.4c3.1,1.2,5.2,2.5,6.3,3.8l-1.1,9.5h-26.8l-1.1-9.5c1-1.3,3.1-2.6,6.3-3.8v-52.4c-3.1-1.1-5.2-2.4-6.3-3.9l1.1-9.5h26.8Zm40,79.2h-19l-25.5-41.3L690,365.2c-2.1-1-3.6-2-4.5-3.1l1.1-9.3h26.2l1.1,9.3c-1.1,1.2-3.1,2.4-6,3.7l-19.8,24.4l18.1,27.3c5,1.1,8.4,2.7,10.2,4.9l-1.1,9.6Z" transform="translate(0 0.000002)" stroke-miterlimit="1"/><path id="ezF4CG8ALp513" d="M752.9,388.8c-5.8,0-9.8,1.1-12,3.3v26.3c6.2,1.1,10.4,2.8,12.7,4.8l-1.1,8.8h-32.8l-1.1-8.8c1.1-1.5,3.2-2.8,6.3-3.9v-31.9c-2.7-.9-4.8-2.2-6.3-3.9l1.1-8.8c4.2-.9,8-1.4,11.4-1.4s6.2.1,8.4.2v7.2c1.8-2.1,4-3.8,6.8-5.1s5.3-2,7.5-2c2.3,0,3.8.2,4.6.6l-.3,14.9c-1.7-.2-3.4-.3-5.2-.3Z" stroke-miterlimit="1"/><path id="ezF4CG8ALp514" d="M762.3,383.1c0-1.1,0-2.4.1-3.7c7.1-3.8,14.8-5.7,22.9-5.7c8.2,0,14.1,1.5,17.6,4.6c3.6,3.1,5.3,8.2,5.3,15.4v24.4c2.7.5,4.8,1.2,6.3,2v10c-3.9,1.8-9.5,2.8-16.7,2.8-.8-2-1.4-4.4-2-7.2-3.3,4.8-9.3,7.2-17.9,7.2-5.1,0-9.5-1.5-13.1-4.5s-5.4-7-5.4-12.2c0-5.1,1.7-9.2,5.1-12.1s8.5-4.4,15.2-4.4h12.5v-5.5c0-6-3.2-8.9-9.5-8.9-2.4,0-4.3.2-5.9.7-.2,3.2-.6,5.7-1.4,7.5h-11.2c-1.3-2.7-1.9-6.2-1.9-10.4Zm20.6,38.1c3.9,0,7-1.1,9.3-3.4v-9.4h-8c-5.5,0-8.3,2.1-8.3,6.3c0,1.9.6,3.5,1.8,4.7s3,1.8,5.2,1.8Z" stroke-miterlimit="1"/><path id="ezF4CG8ALp515" d="M824,372.5c0-8,1.7-13.9,5.2-18c3.4-4,8.9-6,16.4-6s14,2,19.5,6.1c.1.5.1,1.3.1,2.4s-.3,2.7-.8,5.1-1.3,4.3-2.2,5.7h-9.6c-1.4-2.6-2.1-5-2.2-7.3-.9-.2-1.7-.2-2.3-.2-2.9,0-5,.8-6.2,2.4s-1.8,4.5-1.8,8.7v4.4h17.6v10.6h-17.6v32.5c5.7,1.1,9.6,2.6,11.7,4.5l-1.1,8.8h-31.8l-1.1-8.8c1.1-1.5,3.2-2.8,6.3-3.9v-33h-5l-1.3-7.9c1.7-1.5,3.8-2.4,6.3-2.6v-3.5Z" stroke-miterlimit="1"/><path id="ezF4CG8ALp516" d="M884.4,360.2v14.5h16.4v9.6h-16.4v29c0,2.4.3,4.2,1,5.3s2.3,1.7,4.9,1.7s5.4-.6,8.4-1.7l3.4,8.9c-5.9,3-11.9,4.5-18.1,4.5s-10.3-1.3-12.5-4c-2.2-2.6-3.3-6.5-3.3-11.5v-32.2h-5.2l-1.3-7c1.2-1.5,3.7-2.9,7.6-4.4.9-6.3,3.1-10.5,6.5-12.7h8.6Z" stroke-miterlimit="1"/><path id="ezF4CG8ALp517" d="M921.7,445.3c1.4,0,2.8-1.3,4.4-3.8c1.6-2.6,2.7-5.6,3.3-9.1l-18.8-44.5c-3.7-1.2-6.3-2.7-7.6-4.4l1.1-8.8h26.4l1.1,8.8c-1,1.2-2.7,2.3-5,3.3l6.3,17.3c1.4,3.6,2.3,7.2,2.9,10.7l.3,1.6h1.6c.6-3.8,1.7-7.8,3.2-12l6.1-17c-2.8-1.1-4.8-2.4-6-3.9l1.1-8.8h25.2l1.1,8.8c-1.4,1.8-3.9,3.3-7.6,4.5l-18.9,44.7c-3.6,8.5-6.3,14-8.3,16.4-3.4,4.5-8,6.8-14.1,6.8-6,0-10.6-1.6-13.7-4.7-.1-.8-.1-1.5-.1-2.3c0-4.2.9-8.2,2.6-11.9h9.5c1.1,2.1,1.8,4.9,2,8.4h1.9Z" stroke-miterlimit="1"/></g><g id="ezF4CG8ALp518" transform="matrix(.75 0 0 0.75 154.287399 95.526644)"><path id="ezF4CG8ALp519" d="M380.6,278.8c-19.6-19.6-19.6-51.3,0-70.9" fill="none" stroke="#000" stroke-width="14" stroke-linecap="round" stroke-miterlimit="1"/><path id="ezF4CG8ALp520" d="M384.5,278.8c0-27.7,22.4-50.1,50.1-50.1" fill="none" stroke="#000" stroke-width="14" stroke-linecap="round" stroke-miterlimit="1"/><g><path d="M315.7,455.2h-41.2c-7.4,0-13.3-6-13.3-13.3v-41.2c0-5.5,2.2-10.8,6.1-14.8l88.6-88.6c17.4-17.4,45.7-17.4,63.2,0v0c17.4,17.4,17.4,45.7,0,63.2l-88.6,88.6c-4,3.9-9.3,6.1-14.8,6.1Z" fill="#fff" stroke="#000" stroke-width="14" stroke-miterlimit="1"/><path d="M337.8,441.7L419,360.5c17.4-17.4,17.4-45.7,0-63.2v0c-17.4-17.4-45.7-17.4-63.2,0l-81.2,81.2l63.2,63.2Z" transform="translate(-.700235 1.070831)" fill="#ffb401" stroke="#000" stroke-width="14" stroke-miterlimit="1"/><rect width="89.3" height="25.3" rx="0" ry="0" transform="matrix(.7071 0.7071-.7071 0.7071 287.141917 364.444349)" stroke-miterlimit="1"/><rect width="89.3" height="25.3" rx="0" ry="0" transform="matrix(.7071 0.7071-.7071 0.7071 316.53432 333.61241)" stroke-miterlimit="1"/><path d="M261.2,415.7v26.1c0,7.4,6,13.3,13.3,13.3h26.1l-39.4-39.4Z" stroke-miterlimit="1"/></g><ellipse rx="13.143656" ry="20.531013" transform="matrix(.3345-.9424 0.957524 0.339868 392.449631 314.113183)" stroke-miterlimit="1"/><g id="ezF4CG8ALp528" transform="matrix(-.035219 0.99938-.99938-.035219 658.671042 59.53203)"><path d="M249.5,372.9c-16.2,0-29.3-13.1-29.3-29.3s13.1-29.3,29.3-29.3c25.4,0,46.3,20.3,54.4,29.3-8.1,8.9-29.1,29.3-54.4,29.3Z" fill="#fff" stroke-miterlimit="1"/><path d="M249.5,321.3c18.9,0,35.5,13.2,44.7,22.3-9.2,9.1-25.8,22.3-44.7,22.3-12.3,0-22.3-10-22.3-22.3s10.1-22.3,22.3-22.3m0-14c-20,0-36.3,16.2-36.3,36.3c0,20,16.2,36.3,36.3,36.3c36.3,0,63.5-36.3,63.5-36.3s-27.2-36.3-63.5-36.3v0Z" transform="translate(-3.891863 3.139016)" stroke-miterlimit="1"/></g><g id="ezF4CG8ALp531" transform="matrix(.107404-.994215 0.994215 0.107404-78.088512 608.421312)"><path d="M299.8,347.7c-9-8.1-29.3-29.1-29.3-54.4c0-16.2,13.1-29.3,29.3-29.3s29.3,13.1,29.3,29.3c0,25.3-20.3,46.3-29.3,54.4Z" fill="#fff" stroke-miterlimit="1"/><path d="M299.8,271c12.3,0,22.3,10,22.3,22.3c0,18.9-13.2,35.5-22.3,44.7-9.1-9.2-22.3-25.8-22.3-44.7c0-12.3,10-22.3,22.3-22.3m0-14c-20,0-36.3,16.2-36.3,36.3c0,36.3,36.3,63.5,36.3,63.5s36.3-27.2,36.3-63.5c0-20-16.3-36.3-36.3-36.3v0Z" stroke-miterlimit="1"/></g></g></g></g>
<script><![CDATA[
(function(s,i,u,o,c,w,d,t,n,x,e,p,a,b){(a=Array.from(d.querySelectorAll('svg#' + i.root)).filter(n=> !n.svgatorPlayer)[0]||{}).svgatorPlayer={ready:(function(a){b=[];return function(c){return c?(b.push(c),a.svgatorPlayer):b}})(a)};w[o]=w[o]||{};w[o][s]=w[o][s]||[];w[o][s].push(i);e=d.createElementNS(n,t);e.async=true;e.setAttributeNS(x,'href',[u,s,'.','j','s','?','v','=',c].join(''));e.setAttributeNS(null,'src',[u,s,'.','j','s','?','v','=',c].join(''));p=d.getElementsByTagName(t)[0];p.parentNode.insertBefore(e,p);})('91c80d77',{"root":"ezF4CG8ALp51","version":"2022-05-04","animations":[{"elements":{"ezF4CG8ALp53":{"transform":{"data":{"s":{"x":2.459949,"y":1},"t":{"x":-16.287699,"y":-18.560401}},"keys":{"o":[{"t":2340,"v":{"x":993.144124,"y":446.823434,"type":"corner"}},{"t":2440,"v":{"x":1086.830821,"y":446.823434,"type":"corner"}}]}}},"ezF4CG8ALp55":{"opacity":[{"t":1500,"v":0,"e":[1,0]},{"t":1810,"v":1,"e":[1,0]},{"t":4900,"v":0}],"stroke-dashoffset":[{"t":1800,"v":496.43},{"t":2480,"v":0},{"t":4900,"v":0},{"t":5000,"v":496.43}]},"ezF4CG8ALp56":{"opacity":[{"t":1800,"v":0,"e":[1,0]},{"t":4900,"v":1}],"stroke-dashoffset":[{"t":1800,"v":496.43},{"t":2500,"v":0},{"t":4900,"v":0},{"t":5000,"v":496.43}]},"ezF4CG8ALp59":{"transform":{"data":{"t":{"x":-487.75,"y":-432}},"keys":{"o":[{"t":400,"v":{"x":487.75,"y":432,"type":"corner"}},{"t":1880,"v":{"x":487.75,"y":432,"type":"corner"},"e":[0.68,-0.55,0.265,1.55]},{"t":2040,"v":{"x":487.75,"y":372,"type":"corner"},"e":[0.175,0.885,0.32,1.275]},{"t":2270,"v":{"x":487.75,"y":432,"type":"corner"}},{"t":5100,"v":{"x":487.75,"y":432,"type":"corner"}}],"k":[{"t":1000,"v":{"x":0,"y":0}},{"t":1900,"v":{"x":20,"y":0},"e":[0.68,-0.55,0.265,1.55]},{"t":2040,"v":{"x":0,"y":0},"e":[0.175,0.885,0.32,1.275]},{"t":2270,"v":{"x":0,"y":0}},{"t":4900,"v":{"x":0,"y":0},"e":[0.175,0.885,0.32,1.275]},{"t":5100,"v":{"x":-10,"y":0},"e":[0.175,0.885,0.32,1.275]},{"t":5300,"v":{"x":0,"y":0}}],"s":[{"t":400,"v":{"x":1,"y":1},"e":[0.6,-0.28,0.735,0.045]},{"t":800,"v":{"x":1,"y":1.804525},"e":[0.6,-0.28,0.735,0.045]},{"t":1000,"v":{"x":1,"y":0.103304},"e":[0.6,-0.28,0.735,0.045]},{"t":1880,"v":{"x":1,"y":-0.004686},"e":[0.68,-0.55,0.265,1.55]},{"t":2040,"v":{"x":1,"y":1.328649},"e":[0.175,0.885,0.32,1.275]},{"t":2240,"v":{"x":1,"y":1}}]}},"opacity":[{"t":400,"v":1,"e":[1,0]},{"t":1000,"v":0},{"t":1810,"v":0,"e":[1,0]},{"t":1950,"v":1}],"fill":[{"t":400,"v":{"t":"c","v":{"r":255,"g":180,"b":1,"a":1}},"e":[1,0]},{"t":1000,"v":{"t":"c","v":{"r":0,"g":0,"b":0,"a":1}}},{"t":4900,"v":{"t":"c","v":{"r":0,"g":0,"b":0,"a":1}}},{"t":5100,"v":{"t":"c","v":{"r":255,"g":180,"b":1,"a":1}}}]},"ezF4CG8ALp510":{"transform":{"data":{"t":{"x":-550.5,"y":-432}},"keys":{"o":[{"t":400,"v":{"x":550.5,"y":432,"type":"corner"}},{"t":1960,"v":{"x":550.5,"y":432,"type":"corner"},"e":[0.68,-0.55,0.265,1.55]},{"t":2120,"v":{"x":550.5,"y":382,"type":"corner"},"e":[0.175,0.885,0.32,1.275]},{"t":2350,"v":{"x":550.5,"y":432,"type":"corner"}},{"t":5100,"v":{"x":550.5,"y":432,"type":"corner"}}],"k":[{"t":1000,"v":{"x":0,"y":0}},{"t":1980,"v":{"x":20,"y":0},"e":[0.68,-0.55,0.265,1.55]},{"t":2120,"v":{"x":0,"y":0},"e":[0.175,0.885,0.32,1.275]},{"t":2350,"v":{"x":0,"y":0}},{"t":4900,"v":{"x":0,"y":0},"e":[0.175,0.885,0.32,1.275]},{"t":5100,"v":{"x":-10,"y":0},"e":[0.175,0.885,0.32,1.275]},{"t":5300,"v":{"x":0,"y":0}}],"s":[{"t":400,"v":{"x":1,"y":1},"e":[0.6,-0.28,0.735,0.045]},{"t":800,"v":{"x":1,"y":1.742237},"e":[0.6,-0.28,0.735,0.045]},{"t":1000,"v":{"x":1,"y":0.094116},"e":[0.6,-0.28,0.735,0.045]},{"t":1960,"v":{"x":1,"y":0.023248},"e":[0.68,-0.55,0.265,1.55]},{"t":2120,"v":{"x":1,"y":1.44542},"e":[0.175,0.885,0.32,1.275]},{"t":2320,"v":{"x":1,"y":1}}]}},"opacity":[{"t":400,"v":1,"e":[1,0]},{"t":1000,"v":0},{"t":1860,"v":0,"e":[1,0]},{"t":2030,"v":1}],"fill":[{"t":400,"v":{"t":"c","v":{"r":255,"g":180,"b":1,"a":1}},"e":[1,0]},{"t":1000,"v":{"t":"c","v":{"r":0,"g":0,"b":0,"a":1}}},{"t":4900,"v":{"t":"c","v":{"r":0,"g":0,"b":0,"a":1}}},{"t":5100,"v":{"t":"c","v":{"r":255,"g":180,"b":1,"a":1}}}]},"ezF4CG8ALp511":{"transform":{"data":{"t":{"x":-605.9,"y":-432.9}},"keys":{"o":[{"t":400,"v":{"x":605.9,"y":432.9,"type":"corner"}},{"t":2030,"v":{"x":605.9,"y":432.9,"type":"corner"},"e":[0.68,-0.55,0.265,1.55]},{"t":2190,"v":{"x":605.9,"y":382.9,"type":"corner"},"e":[0.175,0.885,0.32,1.275]},{"t":2420,"v":{"x":605.9,"y":432.9,"type":"corner"}},{"t":5100,"v":{"x":605.9,"y":432.9,"type":"corner"}}],"k":[{"t":1000,"v":{"x":0,"y":0}},{"t":2050,"v":{"x":20,"y":0},"e":[0.68,-0.55,0.265,1.55]},{"t":2190,"v":{"x":0,"y":0},"e":[0.175,0.885,0.32,1.275]},{"t":2420,"v":{"x":0,"y":0}},{"t":4900,"v":{"x":0,"y":0},"e":[0.175,0.885,0.32,1.275]},{"t":5100,"v":{"x":-10,"y":0},"e":[0.175,0.885,0.32,1.275]},{"t":5300,"v":{"x":0,"y":0}}],"s":[{"t":400,"v":{"x":1,"y":1},"e":[0.6,-0.28,0.735,0.045]},{"t":800,"v":{"x":1,"y":1.729878},"e":[0.6,-0.28,0.735,0.045]},{"t":1000,"v":{"x":1,"y":0.125507},"e":[0.6,-0.28,0.735,0.045]},{"t":2030,"v":{"x":1,"y":0.009783},"e":[0.68,-0.55,0.265,1.55]},{"t":2190,"v":{"x":1,"y":1.372309},"e":[0.175,0.885,0.32,1.275]},{"t":2390,"v":{"x":1,"y":1}}]}},"opacity":[{"t":400,"v":1,"e":[1,0]},{"t":1000,"v":0},{"t":1860,"v":0,"e":[1,0]},{"t":2100,"v":1,"e":[0.175,0.885,0.32,1.275]}],"fill":[{"t":400,"v":{"t":"c","v":{"r":255,"g":180,"b":1,"a":1}},"e":[1,0]},{"t":1000,"v":{"t":"c","v":{"r":0,"g":0,"b":0,"a":1}}},{"t":4900,"v":{"t":"c","v":{"r":0,"g":0,"b":0,"a":1}}},{"t":5100,"v":{"t":"c","v":{"r":255,"g":180,"b":1,"a":1}}}]},"ezF4CG8ALp512":{"transform":{"data":{"t":{"x":-681.9,"y":-431.999998}},"keys":{"o":[{"t":400,"v":{"x":681.9,"y":432,"type":"corner"}},{"t":2130,"v":{"x":681.9,"y":432,"type":"corner"},"e":[0.68,-0.55,0.265,1.55]},{"t":2290,"v":{"x":681.9,"y":382,"type":"corner"},"e":[0.175,0.885,0.32,1.275]},{"t":2520,"v":{"x":681.9,"y":432,"type":"corner"}},{"t":5100,"v":{"x":681.9,"y":432,"type":"corner"}}],"k":[{"t":1000,"v":{"x":0,"y":0}},{"t":2150,"v":{"x":20,"y":0},"e":[0.68,-0.55,0.265,1.55]},{"t":2290,"v":{"x":0,"y":0},"e":[0.175,0.885,0.32,1.275]},{"t":2520,"v":{"x":0,"y":0}},{"t":4900,"v":{"x":0,"y":0},"e":[0.175,0.885,0.32,1.275]},{"t":5100,"v":{"x":-10,"y":0},"e":[0.175,0.885,0.32,1.275]},{"t":5300,"v":{"x":0,"y":0}}],"s":[{"t":400,"v":{"x":1,"y":1},"e":[0.6,-0.28,0.735,0.045]},{"t":800,"v":{"x":1,"y":1.807388},"e":[0.6,-0.28,0.735,0.045]},{"t":1000,"v":{"x":1,"y":0.077479},"e":[0.6,-0.28,0.735,0.045]},{"t":2130,"v":{"x":1,"y":0.0046},"e":[0.68,-0.55,0.265,1.55]},{"t":2290,"v":{"x":1,"y":1.274468},"e":[0.175,0.885,0.32,1.275]},{"t":2490,"v":{"x":1,"y":1}}]}},"opacity":[{"t":400,"v":1,"e":[1,0]},{"t":1000,"v":0},{"t":2020,"v":0,"e":[1,0]},{"t":2200,"v":1}]},"ezF4CG8ALp513":{"transform":{"data":{"t":{"x":-738.5,"y":-432.9}},"keys":{"o":[{"t":400,"v":{"x":738.5,"y":432.9,"type":"corner"}},{"t":2210,"v":{"x":738.5,"y":432.9,"type":"corner"},"e":[0.68,-0.55,0.265,1.55]},{"t":2370,"v":{"x":738.5,"y":371.9,"type":"corner"},"e":[0.175,0.885,0.32,1.275]},{"t":2600,"v":{"x":738.5,"y":432.9,"type":"corner"}},{"t":5100,"v":{"x":738.5,"y":432.9,"type":"corner"}}],"k":[{"t":1000,"v":{"x":0,"y":0}},{"t":2230,"v":{"x":20,"y":0},"e":[0.68,-0.55,0.265,1.55]},{"t":2370,"v":{"x":0,"y":0},"e":[0.175,0.885,0.32,1.275]},{"t":2600,"v":{"x":0,"y":0}},{"t":4900,"v":{"x":0,"y":0},"e":[0.175,0.885,0.32,1.275]},{"t":5100,"v":{"x":-10,"y":0},"e":[0.175,0.885,0.32,1.275]},{"t":5300,"v":{"x":0,"y":0}}],"s":[{"t":400,"v":{"x":1,"y":1},"e":[0.6,-0.28,0.735,0.045]},{"t":800,"v":{"x":1,"y":1.672313},"e":[0.6,-0.28,0.735,0.045]},{"t":1000,"v":{"x":1,"y":0.130811},"e":[0.6,-0.28,0.735,0.045]},{"t":2210,"v":{"x":1,"y":0.043949},"e":[0.68,-0.55,0.265,1.55]},{"t":2370,"v":{"x":1,"y":1.258229},"e":[0.175,0.885,0.32,1.275]},{"t":2570,"v":{"x":1,"y":1}}]}},"opacity":[{"t":400,"v":1,"e":[1,0]},{"t":1000,"v":0},{"t":2110,"v":0,"e":[1,0]},{"t":2280,"v":1}]},"ezF4CG8ALp514":{"transform":{"data":{"t":{"x":-786.95,"y":-432}},"keys":{"o":[{"t":400,"v":{"x":786.95,"y":432,"type":"corner"}},{"t":2270,"v":{"x":786.95,"y":432,"type":"corner"},"e":[0.68,-0.55,0.265,1.55]},{"t":2430,"v":{"x":786.95,"y":382,"type":"corner"},"e":[0.175,0.885,0.32,1.275]},{"t":2660,"v":{"x":786.95,"y":432,"type":"corner"}},{"t":5100,"v":{"x":786.95,"y":432,"type":"corner"}}],"k":[{"t":1000,"v":{"x":0,"y":0}},{"t":2290,"v":{"x":20,"y":0},"e":[0.68,-0.55,0.265,1.55]},{"t":2430,"v":{"x":0,"y":0},"e":[0.175,0.885,0.32,1.275]},{"t":2660,"v":{"x":0,"y":0}},{"t":4900,"v":{"x":0,"y":0},"e":[0.175,0.885,0.32,1.275]},{"t":5100,"v":{"x":-10,"y":0},"e":[0.175,0.885,0.32,1.275]},{"t":5300,"v":{"x":0,"y":0}}],"s":[{"t":400,"v":{"x":1,"y":1},"e":[0.6,-0.28,0.735,0.045]},{"t":800,"v":{"x":1,"y":1.684666},"e":[0.6,-0.28,0.735,0.045]},{"t":1000,"v":{"x":1,"y":0.155165},"e":[0.6,-0.28,0.735,0.045]},{"t":2270,"v":{"x":1,"y":0.006763},"e":[0.68,-0.55,0.265,1.55]},{"t":2430,"v":{"x":1,"y":1.297997},"e":[0.175,0.885,0.32,1.275]},{"t":2630,"v":{"x":1,"y":1}}]}},"opacity":[{"t":400,"v":1,"e":[1,0]},{"t":1000,"v":0},{"t":2220,"v":0,"e":[1,0]},{"t":2340,"v":1}]},"ezF4CG8ALp515":{"transform":{"data":{"t":{"x":-841.5,"y":-430.613983}},"keys":{"o":[{"t":400,"v":{"x":841.5,"y":430.613983,"type":"corner"}},{"t":2330,"v":{"x":841.5,"y":430.613983,"type":"corner"},"e":[0.68,-0.55,0.265,1.55]},{"t":2500,"v":{"x":841.5,"y":380.613983,"type":"corner"},"e":[0.175,0.885,0.32,1.275]},{"t":2720,"v":{"x":841.5,"y":430.613983,"type":"corner"}},{"t":5100,"v":{"x":841.5,"y":430.613983,"type":"corner"}}],"k":[{"t":1000,"v":{"x":0,"y":0}},{"t":2350,"v":{"x":20,"y":0},"e":[0.68,-0.55,0.265,1.55]},{"t":2500,"v":{"x":0,"y":0},"e":[0.175,0.885,0.32,1.275]},{"t":2720,"v":{"x":0,"y":0}},{"t":4900,"v":{"x":0,"y":0},"e":[0.175,0.885,0.32,1.275]},{"t":5100,"v":{"x":-10,"y":0},"e":[0.175,0.885,0.32,1.275]},{"t":5300,"v":{"x":0,"y":0}}],"s":[{"t":400,"v":{"x":1,"y":1},"e":[0.6,-0.28,0.735,0.045]},{"t":800,"v":{"x":1,"y":1.665536},"e":[0.6,-0.28,0.735,0.045]},{"t":1000,"v":{"x":1,"y":0.117526},"e":[0.6,-0.28,0.735,0.045]},{"t":2330,"v":{"x":1,"y":0.005331},"e":[0.68,-0.55,0.265,1.55]},{"t":2500,"v":{"x":1,"y":1.23197},"e":[0.175,0.885,0.32,1.275]},{"t":2690,"v":{"x":1,"y":1}}]}},"opacity":[{"t":400,"v":1,"e":[1,0]},{"t":1000,"v":0},{"t":2270,"v":0,"e":[1,0]},{"t":2400,"v":1}]},"ezF4CG8ALp516":{"transform":{"data":{"t":{"x":-881.9,"y":-429.480818}},"keys":{"o":[{"t":400,"v":{"x":881.9,"y":429.480818,"type":"corner"}},{"t":2390,"v":{"x":881.9,"y":429.480818,"type":"corner"},"e":[0.68,-0.55,0.265,1.55]},{"t":2560,"v":{"x":881.9,"y":369.480818,"type":"corner"},"e":[0.175,0.885,0.32,1.275]},{"t":2780,"v":{"x":881.9,"y":429.480818,"type":"corner"}},{"t":5100,"v":{"x":881.9,"y":429.480818,"type":"corner"}}],"k":[{"t":1000,"v":{"x":0,"y":0}},{"t":2410,"v":{"x":20,"y":0},"e":[0.68,-0.55,0.265,1.55]},{"t":2560,"v":{"x":0,"y":0},"e":[0.175,0.885,0.32,1.275]},{"t":2780,"v":{"x":0,"y":0}},{"t":4900,"v":{"x":0,"y":0},"e":[0.175,0.885,0.32,1.275]},{"t":5100,"v":{"x":-10,"y":0},"e":[0.175,0.885,0.32,1.275]},{"t":5300,"v":{"x":0,"y":0}}],"s":[{"t":400,"v":{"x":1,"y":1},"e":[0.6,-0.28,0.735,0.045]},{"t":800,"v":{"x":1,"y":1.675938},"e":[0.6,-0.28,0.735,0.045]},{"t":1000,"v":{"x":1,"y":0.137928},"e":[0.6,-0.28,0.735,0.045]},{"t":2390,"v":{"x":1,"y":0.031715},"e":[0.68,-0.55,0.265,1.55]},{"t":2560,"v":{"x":1,"y":1.36692},"e":[0.175,0.885,0.32,1.275]},{"t":2750,"v":{"x":1,"y":1}}]}},"opacity":[{"t":400,"v":1,"e":[1,0]},{"t":1000,"v":0},{"t":2250,"v":0,"e":[1,0]},{"t":2460,"v":1}]},"ezF4CG8ALp517":{"transform":{"data":{"t":{"x":-935.7,"y":-429.480818}},"keys":{"o":[{"t":400,"v":{"x":935.7,"y":429.480818,"type":"corner"}},{"t":2480,"v":{"x":935.7,"y":429.480818,"type":"corner"},"e":[0.68,-0.55,0.265,1.55]},{"t":2650,"v":{"x":935.7,"y":359.480818,"type":"corner"},"e":[0.175,0.885,0.32,1.275]},{"t":2870,"v":{"x":935.7,"y":429.480818,"type":"corner"}},{"t":5100,"v":{"x":935.7,"y":429.480818,"type":"corner"}}],"k":[{"t":1000,"v":{"x":0,"y":0}},{"t":2500,"v":{"x":20,"y":0},"e":[0.68,-0.55,0.265,1.55]},{"t":2650,"v":{"x":0,"y":0},"e":[0.175,0.885,0.32,1.275]},{"t":2870,"v":{"x":0,"y":0}},{"t":4900,"v":{"x":0,"y":0},"e":[0.175,0.885,0.32,1.275]},{"t":5100,"v":{"x":-10,"y":0},"e":[0.175,0.885,0.32,1.275]},{"t":5300,"v":{"x":0,"y":0}}],"s":[{"t":400,"v":{"x":1,"y":1},"e":[0.6,-0.28,0.735,0.045]},{"t":800,"v":{"x":1,"y":1.661701},"e":[0.6,-0.28,0.735,0.045]},{"t":1000,"v":{"x":1,"y":0.109979},"e":[0.6,-0.28,0.735,0.045]},{"t":2480,"v":{"x":1,"y":-0.002013},"e":[0.68,-0.55,0.265,1.55]},{"t":2650,"v":{"x":1,"y":1.469741},"e":[0.175,0.885,0.32,1.275]},{"t":2840,"v":{"x":1,"y":1},"e":[0.6,-0.28,0.735,0.045]},{"t":5100,"v":{"x":1,"y":1}}]}},"opacity":[{"t":400,"v":1,"e":[1,0]},{"t":1000,"v":0},{"t":2210,"v":0,"e":[1,0]},{"t":2550,"v":1}]},"ezF4CG8ALp518":{"transform":{"data":{"t":{"x":-355.72496,"y":-337.469185}},"keys":{"o":[{"t":0,"v":{"x":421.081119,"y":348.628533,"type":"cusp","end":{"x":421.060537,"y":348.884012}},"e":[0.39,0.575,0.565,1]},{"t":600,"v":{"x":421.081119,"y":348.628533,"type":"cusp","end":{"x":327.730578,"y":356.550724}},"e":[0.39,0.575,0.565,1]},{"t":1050,"v":{"x":322.354355,"y":214.650274,"type":"cusp","end":{"x":287.338925,"y":254.557966}},"e":[0.47,0,0.745,0.715]},{"t":1600,"v":{"x":407.140759,"y":323.162667,"type":"cusp","start":{"x":316.863224,"y":322.348207},"end":{"x":658.877547,"y":325.270467}}},{"t":2600,"v":{"x":1161.589049,"y":310.320068,"type":"cusp","start":{"x":1034.920392,"y":336.254604},"end":{"x":1340.080256,"y":187.810083}},"e":[0.215,0.61,0.355,1]},{"t":4600,"v":{"x":421.081119,"y":348.628533,"type":"cusp","start":{"x":13.215547,"y":92.45554}}},{"t":4900,"v":{"x":484.56499,"y":348.628533,"type":"corner"}},{"t":5100,"v":{"x":421.081119,"y":348.628533,"type":"corner","end":{"x":421.060537,"y":348.884012}},"e":[0.39,0.575,0.565,1]}],"r":[{"t":2000,"v":0},{"t":4700,"v":0}],"s":[{"t":0,"v":{"x":0.75,"y":0.75}},{"t":1060,"v":{"x":0.75,"y":0.75}},{"t":1800,"v":{"x":1,"y":1}},{"t":3300,"v":{"x":1,"y":1}},{"t":4100,"v":{"x":0.75,"y":0.75}}]}}},"ezF4CG8ALp519":{"transform":{"data":{"o":{"x":380.6,"y":278.8,"type":"corner","end":{"x":402.888925,"y":281.930917}},"t":{"x":-380.6,"y":-278.8}},"keys":{"r":[{"t":600,"v":0,"e":[0.39,0.575,0.565,1]},{"t":1000,"v":27.961664},{"t":1100,"v":27.961664,"e":[0.47,0,0.745,0.715]},{"t":1700,"v":0},{"t":2600,"v":-50.193449},{"t":3600,"v":0},{"t":4600,"v":0},{"t":4900,"v":-31.862529},{"t":5100,"v":0}]}}},"ezF4CG8ALp520":{"transform":{"data":{"o":{"x":384.5,"y":278.8,"type":"corner","end":{"x":407.295002,"y":287.252784}},"t":{"x":-384.5,"y":-278.8}},"keys":{"r":[{"t":600,"v":0,"e":[0.39,0.575,0.565,1]},{"t":1000,"v":27.961664},{"t":1100,"v":27.961664,"e":[0.47,0,0.745,0.715]},{"t":1700,"v":0},{"t":2600,"v":-59.670131},{"t":3600,"v":0},{"t":4600,"v":0},{"t":4900,"v":-31.862529},{"t":5100,"v":0}]}}},"ezF4CG8ALp528":{"transform":{"data":{"o":{"x":300.6,"y":347.7,"type":"corner"},"t":{"x":-300.6,"y":-347.7}},"keys":{"r":[{"t":600,"v":92.018301,"e":[0.785,0.135,0.15,0.86]},{"t":800,"v":0,"e":[0.785,0.135,0.15,0.86]},{"t":900,"v":92.018301,"e":[0.785,0.135,0.15,0.86]},{"t":1000,"v":0,"e":[0.785,0.135,0.15,0.86]},{"t":1100,"v":92.018301,"e":[0.785,0.135,0.15,0.86]},{"t":1200,"v":0,"e":[0.785,0.135,0.15,0.86]},{"t":1300,"v":92.018301,"e":[0.785,0.135,0.15,0.86]},{"t":1400,"v":0,"e":[0.785,0.135,0.15,0.86]},{"t":1500,"v":85.536434,"e":[0.785,0.135,0.15,0.86]},{"t":1600,"v":0,"e":[0.785,0.135,0.15,0.86]},{"t":1700,"v":85.536434,"e":[0.785,0.135,0.15,0.86]},{"t":1800,"v":0,"e":[0.785,0.135,0.15,0.86]},{"t":1900,"v":85.536434,"e":[0.785,0.135,0.15,0.86]},{"t":2000,"v":0,"e":[0.785,0.135,0.15,0.86]},{"t":2100,"v":85.536434,"e":[0.785,0.135,0.15,0.86]},{"t":2200,"v":0,"e":[0.785,0.135,0.15,0.86]},{"t":2300,"v":85.536434,"e":[0.785,0.135,0.15,0.86]},{"t":2400,"v":0,"e":[0.785,0.135,0.15,0.86]},{"t":2500,"v":85.536434,"e":[0.785,0.135,0.15,0.86]},{"t":2600,"v":0,"e":[0.785,0.135,0.15,0.86]},{"t":2700,"v":85.536434,"e":[0.785,0.135,0.15,0.86]},{"t":2800,"v":0,"e":[0.785,0.135,0.15,0.86]},{"t":2900,"v":85.536434,"e":[0.785,0.135,0.15,0.86]},{"t":3000,"v":0,"e":[0.785,0.135,0.15,0.86]},{"t":3100,"v":85.536434,"e":[0.785,0.135,0.15,0.86]},{"t":3200,"v":0,"e":[0.785,0.135,0.15,0.86]},{"t":3300,"v":85.536434,"e":[0.785,0.135,0.15,0.86]},{"t":3400,"v":0,"e":[0.785,0.135,0.15,0.86]},{"t":3500,"v":85.536434,"e":[0.785,0.135,0.15,0.86]},{"t":3600,"v":0,"e":[0.785,0.135,0.15,0.86]},{"t":3700,"v":85.536434,"e":[0.785,0.135,0.15,0.86]},{"t":3800,"v":0,"e":[0.785,0.135,0.15,0.86]},{"t":3900,"v":85.536434,"e":[0.785,0.135,0.15,0.86]},{"t":4000,"v":0,"e":[0.785,0.135,0.15,0.86]},{"t":4100,"v":85.536434,"e":[0.785,0.135,0.15,0.86]},{"t":4200,"v":0,"e":[0.785,0.135,0.15,0.86]},{"t":4300,"v":85.536434,"e":[0.785,0.135,0.15,0.86]},{"t":4400,"v":0,"e":[0.785,0.135,0.15,0.86]},{"t":4500,"v":85.536434,"e":[0.785,0.135,0.15,0.86]},{"t":4600,"v":0,"e":[0.785,0.135,0.15,0.86]},{"t":4700,"v":92.018301,"e":[0.785,0.135,0.15,0.86]},{"t":4800,"v":0,"e":[0.785,0.135,0.15,0.86]},{"t":4900,"v":92.018301,"e":[0.785,0.135,0.15,0.86]},{"t":5000,"v":0,"e":[0.785,0.135,0.15,0.86]},{"t":5100,"v":92.018301,"e":[0.785,0.135,0.15,0.86]},{"t":5200,"v":0,"e":[0.785,0.135,0.15,0.86]},{"t":5300,"v":92.018301,"e":[0.785,0.135,0.15,0.86]},{"t":5500,"v":0,"e":[0.785,0.135,0.15,0.86]},{"t":5700,"v":0,"e":[0.785,0.135,0.15,0.86]},{"t":5900,"v":92.018301,"e":[0.785,0.135,0.15,0.86]}]}}},"ezF4CG8ALp531":{"transform":{"data":{"o":{"x":299.8,"y":347.7,"type":"corner"},"t":{"x":-299.8,"y":-347.7}},"keys":{"r":[{"t":600,"v":-83.834294,"e":[0.785,0.135,0.15,0.86]},{"t":800,"v":0,"e":[0.785,0.135,0.15,0.86]},{"t":900,"v":-83.834294,"e":[0.785,0.135,0.15,0.86]},{"t":1000,"v":0},{"t":1100,"v":-83.834294,"e":[0.785,0.135,0.15,0.86]},{"t":1200,"v":0,"e":[0.785,0.135,0.15,0.86]},{"t":1300,"v":-83.834294,"e":[0.785,0.135,0.15,0.86]},{"t":1400,"v":0,"e":[0.785,0.135,0.15,0.86]},{"t":1500,"v":-85.179591,"e":[0.785,0.135,0.15,0.86]},{"t":1600,"v":0,"e":[0.785,0.135,0.15,0.86]},{"t":1700,"v":-85.179591,"e":[0.785,0.135,0.15,0.86]},{"t":1800,"v":0,"e":[0.785,0.135,0.15,0.86]},{"t":1900,"v":-85.179591,"e":[0.785,0.135,0.15,0.86]},{"t":2000,"v":0,"e":[0.785,0.135,0.15,0.86]},{"t":2100,"v":-85.179591,"e":[0.785,0.135,0.15,0.86]},{"t":2200,"v":0,"e":[0.785,0.135,0.15,0.86]},{"t":2300,"v":-85.179591,"e":[0.785,0.135,0.15,0.86]},{"t":2400,"v":0,"e":[0.785,0.135,0.15,0.86]},{"t":2500,"v":-85.179591,"e":[0.785,0.135,0.15,0.86]},{"t":2600,"v":0,"e":[0.785,0.135,0.15,0.86]},{"t":2700,"v":-85.179591,"e":[0.785,0.135,0.15,0.86]},{"t":2800,"v":0,"e":[0.785,0.135,0.15,0.86]},{"t":2900,"v":-85.179591,"e":[0.785,0.135,0.15,0.86]},{"t":3000,"v":0,"e":[0.785,0.135,0.15,0.86]},{"t":3100,"v":-85.179591,"e":[0.785,0.135,0.15,0.86]},{"t":3200,"v":0,"e":[0.785,0.135,0.15,0.86]},{"t":3300,"v":-85.179591,"e":[0.785,0.135,0.15,0.86]},{"t":3400,"v":0,"e":[0.785,0.135,0.15,0.86]},{"t":3500,"v":-85.179591,"e":[0.785,0.135,0.15,0.86]},{"t":3600,"v":0,"e":[0.785,0.135,0.15,0.86]},{"t":3700,"v":-85.179591,"e":[0.785,0.135,0.15,0.86]},{"t":3800,"v":0,"e":[0.785,0.135,0.15,0.86]},{"t":3900,"v":-85.179591,"e":[0.785,0.135,0.15,0.86]},{"t":4000,"v":0,"e":[0.785,0.135,0.15,0.86]},{"t":4100,"v":-85.179591,"e":[0.785,0.135,0.15,0.86]},{"t":4200,"v":0,"e":[0.785,0.135,0.15,0.86]},{"t":4300,"v":-85.179591,"e":[0.785,0.135,0.15,0.86]},{"t":4400,"v":0,"e":[0.785,0.135,0.15,0.86]},{"t":4500,"v":-85.179591,"e":[0.785,0.135,0.15,0.86]},{"t":4600,"v":0,"e":[0.785,0.135,0.15,0.86]},{"t":4700,"v":-83.834294,"e":[0.785,0.135,0.15,0.86]},{"t":4800,"v":0,"e":[0.785,0.135,0.15,0.86]},{"t":4900,"v":-83.834294,"e":[0.785,0.135,0.15,0.86]},{"t":5000,"v":0,"e":[0.785,0.135,0.15,0.86]},{"t":5100,"v":-83.834294,"e":[0.785,0.135,0.15,0.86]},{"t":5200,"v":0,"e":[0.785,0.135,0.15,0.86]},{"t":5300,"v":-83.834294,"e":[0.785,0.135,0.15,0.86]},{"t":5500,"v":0,"e":[0.785,0.135,0.15,0.86]},{"t":5700,"v":0,"e":[0.785,0.135,0.15,0.86]},{"t":5900,"v":-83.834294,"e":[0.785,0.135,0.15,0.86]}]}}}},"s":"MDOA1ZDkwMzc3OGThhODc3Nkc4LOTdlODQ4MzMJ3NGZUNGI0NTDQ1NDVTNDEzNYzc5N2U4NzdhPNzhRODk3ZTgP0ODMzNzRmWTYQ2NDEzNzdlOEDk3YTg3NzY4AOTdlODQ4MzgW4Mzc0Zkk0NTOQxMzc3Ylg3ZGTgxODEzNzRmFNDY0MTM3NzYL4MTg5N2E4NzWgzNzY4OTdhMVzc0ZlE3Yjc2JODE4ODdhNDEXzNzg4ODU3YTGdhNzkzNzRmNPDZXNDEzNzdiIODU4ODM3NGYD0Nk40NTQ1OTWI/"}],"options":"MDDAxZThhQTMxOFDJQODM3MDgxSODMzMTQ5MzEF4MjcyODE3ZTBdiN2IzMTNiMQzE4MjcyODE3IZTdiN2IzMTQA5NDE0NDhj"},'https://cdn.svgator.com/ply/','__SVGATOR_PLAYER__','2022-05-04',window,document,'script','http://www.w3.org/2000/svg','http://www.w3.org/1999/xlink')
]]></script>
</svg>
