<svg id="eHTwQWM4Sfy1" xmlns="http://www.w3.org/2000/svg" xmlns:xlink="http://www.w3.org/1999/xlink" viewBox="0 0 700 400" shape-rendering="geometricPrecision" text-rendering="geometricPrecision"><defs><radialGradient id="eHTwQWM4Sfy5-fill" cx="0" cy="0" r="1161" spreadMethod="pad" gradientUnits="userSpaceOnUse" gradientTransform="matrix(0.331503 0.943454 -0.849109 0.298352 491.408986 17.437195)"><stop id="eHTwQWM4Sfy5-fill-0" offset="16%" stop-color="rgba(255,245,171,0.5)"/><stop id="eHTwQWM4Sfy5-fill-1" offset="100%" stop-color="rgba(255,255,255,0)"/></radialGradient></defs><g transform="matrix(.334855 0 0 0.334855 84.512395 9.35557)"><rect width="2025.533294" height="1157.447597" rx="0" ry="0" transform="matrix(1.451417 0 0 1.451417-668.801507-242.117071)" fill="#a3b5b3"/><rect id="eHTwQWM4Sfy4" width="2025.533294" height="1157.447597" rx="0" ry="0" transform="matrix(1.451417 0 0 1.451417-668.801507-242.117071)" opacity="0" fill="#d5e0df"/><polygon id="eHTwQWM4Sfy5" points="-513.472788,-244.321547 -585.008906,-219.376595 342.65,1043.01 1601.870062,1043.01 1600,285.460006 129.679187,-1.94 -513.472788,-244.321547" transform="matrix(1.024939 0 0 1.024939-69.202687-17.26909)" opacity="0" fill="url(#eHTwQWM4Sfy5-fill)"/><g id="eHTwQWM4Sfy6" transform="translate(.000042 0.000002)"><g id="eHTwQWM4Sfy7"><path id="eHTwQWM4Sfy8" d="M632.21,955.38v-124.44h-114v123.77l-85.23.34c-26.45.09-47.84,21.55-47.84,48v39.96h390.43c0,0,0-39.73,0-39.73c0-26.48-21.43-47.95-47.91-48-41.68-.08-95.46-.13-95.46.1Z" fill="none" stroke="#331705" stroke-width="8" stroke-linecap="round" stroke-linejoin="round"/><path id="eHTwQWM4Sfy9" d="M517.97,831l.24,34.68c40.225876,11.808111,75.076363,19.079038,113.900888,24.45L631.74,831h-113.76Z" transform="translate(0-36.404807)" fill="#331705" stroke="#331705" stroke-width="8" stroke-linecap="round" stroke-linejoin="round"/><line x1="572.85" y1="1043.01" x2="572.85" y2="830.94" transform="matrix(-1 0 0 0.999435 1145.699952 0.529391)" fill="none" stroke="#331705" stroke-width="8" stroke-linecap="round" stroke-linejoin="round"/></g><g id="eHTwQWM4Sfy11" transform="matrix(.965061 0.262026-.262026 0.965061 54.148544-163.807778)"><g id="eHTwQWM4Sfy12" transform="translate(-331.124584 53.136956)"><path d="M1142.9,555.84c66.04-30.57,111.01,30.34,102.37,90.13-11.1,76.8-92.67,128.41-163.55,83.52-41.66-27.04-66.83-97.13-31.99-138.58c14.7-17.49,46.66-5.91,43.99,27.6c9.12-28.04,26.36-51.47,49.18-62.66Z" fill="none" stroke="#331705" stroke-width="8" stroke-linecap="round" stroke-linejoin="round"/><path d="M1233.33,582.43c-2.6,3.31-37.94,54.01-51.64,72.24" fill="none" stroke="#331705" stroke-width="8" stroke-linecap="round" stroke-linejoin="round"/><path d="M1195.14,553.38c-2.6,3.31-37.94,52.49-51.64,70.72" fill="none" stroke="#331705" stroke-width="8" stroke-linecap="round" stroke-linejoin="round"/><path d="M1220.97,698.36c-32.51-40.02-72.23-74.16-116.68-100.3" fill="none" stroke="#331705" stroke-width="8" stroke-linecap="round" stroke-linejoin="round"/></g><g transform="translate(.000001 0.000001)"><path d="M606.14,422.81c-66.79,21.74-120.67,67.11-138.18,130.57-26.4,95.66,3.21,215.61,101.51,264.05c73.36,36.15,155.33,44.09,242.72,15.95c118.74-38.23,162.38-150.17,141.12-261.73C933.1,465.62,828.62,401.79,729.1,401.79c-46.31,0-83.91,8.3-122.96,21.01Z" fill="#b9272d" stroke="#b9272d" stroke-width="8" stroke-linecap="round" stroke-linejoin="round"/><g id="eHTwQWM4Sfy19" transform="translate(.000001 0.000001)" opacity="0"><path d="M606.14,422.81c-66.79,21.74-120.67,67.11-138.18,130.57-9.09,32.95-11.54,68.77-6.82,103.57c32.44,36.95,81.44,59.27,137.81,47.66c62.42-12.86,119.14-46.51,164.93-104.13c52.91-66.58,48.95-139.4,10.52-194.34-15.01-2.86-30.22-4.34-45.31-4.34-46.31,0-83.91,8.3-122.96,21.01Z" fill="#ef8b1e" stroke="#ef8b1e" stroke-width="8" stroke-linecap="round" stroke-linejoin="round"/><path d="M774.41,406.13c38.43,54.94,42.39,127.76-10.52,194.34-45.79,57.62-102.51,91.27-164.93,104.13-56.37,11.61-105.37-10.7-137.81-47.66c7.41,54.75,32.58,106.92,77.47,141.32c60.34,23.65,130.03,23.84,196.31-13.1c90.06-50.19,161.21-129.68,203.85-240.85c1.23-3.2,2.38-6.38,3.49-9.56-28.66-69.28-95.98-114.93-167.85-128.62Z" fill="#e95a24" stroke="#e95a24" stroke-width="8" stroke-linecap="round" stroke-linejoin="round"/><path d="M532.56,483.2c5.13-4.16,10.92-7.83,17.42-9.01s13.84.54,18.05,5.63c7.04,8.5,2.72,21.32-2.69,30.95-9.03,16.07-31.6,57.85-55.55,39.21-23.29-18.11,7.82-54.66,22.77-66.78Z" opacity="0.8" fill="#ffeb80" stroke="#ffeb80" stroke-width="8" stroke-linecap="round" stroke-linejoin="round"/></g></g><g id="eHTwQWM4Sfy23" transform="translate(.017939 105.531927)"><path id="eHTwQWM4Sfy24" d="M715.13,587.27c6.64-2.51,12.91-6.27,17.59-11.6s7.65-12.34,7.34-19.43" fill="none" stroke="#331705" stroke-width="8" stroke-linecap="round" stroke-linejoin="round" stroke-dashoffset="42.556678" stroke-dasharray="42.556678"/><path id="eHTwQWM4Sfy25" d="M748.618157,578.896078c12.46148,3.911816,38.563737,3.36146,50.291683-.393796" fill="none" stroke="#331705" stroke-width="8" stroke-linecap="round" stroke-linejoin="round"/><ellipse id="eHTwQWM4Sfy26" rx="29.666302" ry="29.666302" transform="translate(774.153782 579.937882)" opacity="0" fill="#331705" stroke-width="0"/><circle id="eHTwQWM4Sfy27" r="26.51" transform="translate(620.08 646.94)" opacity="0" fill="#f0f" stroke="#f0f" stroke-width="8" stroke-linecap="round" stroke-linejoin="round"/><circle id="eHTwQWM4Sfy28" r="26.51" transform="translate(957.44 583.67)" opacity="0" fill="#f0f" stroke="#f0f" stroke-width="8" stroke-linecap="round" stroke-linejoin="round"/><g id="eHTwQWM4Sfy29" transform="matrix(.989488-.144616 0.144616 0.989488-66.709276 133.135011)"><circle id="eHTwQWM4Sfy30" r="21.5" transform="matrix(.5 0 0 0.5 882.419992 525.429997)" fill="#331705" stroke="#331705" stroke-width="8" stroke-linecap="round" stroke-linejoin="round"/><path id="eHTwQWM4Sfy31" d="M869.42,520.56c.99-2.1,1.98-4.21,2.97-6.31" opacity="0" fill="none" stroke="#fff" stroke-width="8" stroke-linecap="round" stroke-linejoin="round"/></g><g id="eHTwQWM4Sfy32" transform="matrix(.989488-.144616 0.144616 0.989488-73.908074 97.56052)"><circle id="eHTwQWM4Sfy33" r="21.5" transform="matrix(.5 0 0 0.5 634.119998 557.159987)" fill="#331705" stroke="#331705" stroke-width="8" stroke-linecap="round" stroke-linejoin="round"/><path id="eHTwQWM4Sfy34" d="M618.49,553.38c.01-2.41,1.22-4.79,3.17-6.22" opacity="0" fill="none" stroke="#fff" stroke-width="8" stroke-linecap="round" stroke-linejoin="round"/></g></g><g transform="translate(.000001 0.000001)"><g id="eHTwQWM4Sfy36"><path d="M716.16,283.01c-.96-29.64,17.15-57.87,41.54-74.95c41.2-28.85,115.25-29.57,143.34,17.79c13.82,23.3,14.85,53.66,2.66,77.85-18.37,36.42-61.81,53.88-102.57,55.41-44.16,1.66-81.75-28.05-84.84-73.65-.06-.82-.1-1.63-.12-2.44Z" fill="#22ad73" stroke="#22ad73" stroke-width="8" stroke-linecap="round" stroke-linejoin="round"/><path id="eHTwQWM4Sfy38" d="M757.7,208.06c-23.19,16.24-40.66,42.56-41.51,70.59c14.22,30.44,47.7,43.22,79.89,33.22c31.85-9.89,62.43-32.93,69.16-65.59c3.95-19.12-1.26-39.84-13.43-55.06-31.68-7.85-69.01-.75-94.13,16.84Z" opacity="0" fill="#84be3f" stroke="#84be3f" stroke-width="8" stroke-linecap="round" stroke-linejoin="round"/><path id="eHTwQWM4Sfy39" d="M755.14,223.05c2.41-1.96,5.13-3.68,8.18-4.23c3.05-.56,6.5.25,8.48,2.65c3.3,3.99,1.28,10.01-1.26,14.53-4.24,7.55-14.84,27.16-26.09,18.41-10.94-8.51,3.67-25.67,10.69-31.36Z" opacity="0" fill="#ffeb80" stroke="#ffeb80" stroke-width="8" stroke-linecap="round" stroke-linejoin="round"/><path d="M670.88,373.54c55.9-71.18,140.93-124.68,235.66-136.41" fill="none" stroke="#331705" stroke-width="8" stroke-linecap="round" stroke-linejoin="round"/><path d="M778.75,280.36c7.38-28.43,12.62-60.09,18.65-88.84" fill="none" stroke="#331705" stroke-width="8" stroke-linecap="round" stroke-linejoin="round"/><path d="M804.16,268.02c13.2,7.88,24.45,17.5,35.54,28.16c12.48,12.01,24.97,24.01,37.45,36.02" fill="none" stroke="#331705" stroke-width="8" stroke-linecap="round" stroke-linejoin="round"/><path d="M842.02,252.7c22.32,13.9,40.74,28.89,58.9,47.91" fill="none" stroke="#331705" stroke-width="8" stroke-linecap="round" stroke-linejoin="round"/></g><path d="M703.39,428.74c-16.74-38.96-43.23-100.36-49.03-112.29-1.87-3.86-4.04-8.01-7.96-9.75-3.34-1.48-7.19-.86-10.78-.21-5.19.94-10.38,1.87-15.57,2.81-5.8,1.05-12.92,3.43-13.51,9.3-.31,3.02,1.38,5.83,2.98,8.41c21.26,34.18,39.28,70.38,53.76,107.94c13.27-2.83,27.01-4.91,40.12-6.19Z" fill="#331705" stroke="#331705" stroke-width="8" stroke-linecap="round" stroke-linejoin="round"/><path d="M616.56,449.66c37.33-17.41,100.82-25.2,134.62-21.6" fill="none" stroke="#331705" stroke-width="8" stroke-linecap="round" stroke-linejoin="round"/><path d="M615.78,319.6c7.1-1.81,13.99-4.43,20.49-7.81" opacity="0.4" fill="none" stroke="#ffeb80" stroke-width="8" stroke-linecap="round" stroke-linejoin="round"/></g></g></g><line x1="353.88" y1="1043.01" x2="890.08" y2="1043.01" fill="none" stroke="#331705" stroke-width="8" stroke-linecap="round" stroke-linejoin="round"/></g>
<script><![CDATA[
(function(s,i,u,o,c,w,d,t,n,x,e,p,a,b){(a=Array.from(d.querySelectorAll('svg#' + i.root)).filter(n=> !n.svgatorPlayer)[0]||{}).svgatorPlayer={ready:(function(a){b=[];return function(c){return c?(b.push(c),a.svgatorPlayer):b}})(a)};w[o]=w[o]||{};w[o][s]=w[o][s]||[];w[o][s].push(i);e=d.createElementNS(n,t);e.async=true;e.setAttributeNS(x,'href',[u,s,'.','j','s','?','v','=',c].join(''));e.setAttributeNS(null,'src',[u,s,'.','j','s','?','v','=',c].join(''));p=d.getElementsByTagName(t)[0];p.parentNode.insertBefore(e,p);})('91c80d77',{"root":"eHTwQWM4Sfy1","version":"2022-05-04","animations":[{"elements":{"eHTwQWM4Sfy4":{"opacity":[{"t":100,"v":0,"e":[0.215,0.61,0.355,1]},{"t":300,"v":1},{"t":2500,"v":1,"e":[0.215,0.61,0.355,1]},{"t":2700,"v":0,"e":[0.215,0.61,0.355,1]}]},"eHTwQWM4Sfy5":{"opacity":[{"t":100,"v":0,"e":[0.215,0.61,0.355,1]},{"t":300,"v":1},{"t":2500,"v":1,"e":[0.215,0.61,0.355,1]},{"t":2700,"v":0,"e":[0.215,0.61,0.355,1]}]},"eHTwQWM4Sfy6":{"transform":{"data":{"o":{"x":616.528958,"y":1043.01,"type":"corner"},"t":{"x":-616.528916,"y":-1043.009998}},"keys":{"s":[{"t":200,"v":{"x":1,"y":1},"e":[0.215,0.61,0.355,1]},{"t":300,"v":{"x":1,"y":1.152296},"e":[0.215,0.61,0.355,1]},{"t":500,"v":{"x":1,"y":1}}]}}},"eHTwQWM4Sfy7":{"transform":{"data":{"o":{"x":572.85,"y":1043.01,"type":"corner"},"t":{"x":-572.85,"y":-1043.01}},"keys":{"k":[{"t":500,"v":{"x":0,"y":0},"e":[0.215,0.61,0.355,1]},{"t":1000,"v":{"x":-25,"y":0}},{"t":2500,"v":{"x":-25,"y":0},"e":[0.215,0.61,0.355,1]},{"t":3000,"v":{"x":0,"y":0},"e":[0.215,0.61,0.355,1]}]}}},"eHTwQWM4Sfy8":{"d":[{"t":500,"v":["M",632.21,955.38,"L",632.21,830.94,"L",518.21,830.94,"L",518.21,954.71,"L",432.98,955.05,"C",406.53,955.14,385.14,976.6,385.14,1003.05,"L",385.14,1043.01,"L",775.57,1043.01,"C",775.57,1043.01,775.57,1003.28,775.57,1003.28,"C",775.57,976.8,754.14,955.33,727.66,955.28,"C",685.98,955.2,632.2,955.15,632.2,955.38,"Z"],"e":[0.215,0.61,0.355,1]},{"t":1000,"v":["M",632.21,955.38,"L",632.21,830.94,"L",518.21,830.94,"L",518.21,954.71,"L",432.98,955.05,"C",406.53,955.14,385.14,976.6,385.14,1003.05,"L",385.14,1043.01,"L",775.57,1043.01,"C",775.57,1043.01,775.33206,1042.95009,763.062635,1003.05,"C",752.022468,967.14745,715.656877,955.28,686.696876,955.28,"C",645.016875,955.2,632.2,955.15,632.2,955.38,"Z"]},{"t":2500,"v":["M",632.21,955.38,"L",632.21,830.94,"L",518.21,830.94,"L",518.21,954.71,"L",432.98,955.05,"C",406.53,955.14,385.14,976.6,385.14,1003.05,"L",385.14,1043.01,"L",775.57,1043.01,"C",775.57,1043.01,775.33206,1042.95009,763.062635,1003.05,"C",752.022468,967.14745,715.656877,955.28,686.696876,955.28,"C",645.016875,955.2,632.2,955.15,632.2,955.38,"Z"],"e":[0.215,0.61,0.355,1]},{"t":3000,"v":["M",632.21,955.38,"L",632.21,830.94,"L",518.21,830.94,"L",518.21,954.71,"L",432.98,955.05,"C",406.53,955.14,385.14,976.6,385.14,1003.05,"L",385.14,1043.01,"L",775.57,1043.01,"C",775.57,1043.01,775.57,1003.28,775.57,1003.28,"C",775.57,976.8,754.14,955.33,727.66,955.28,"C",685.98,955.2,632.2,955.15,632.2,955.38,"Z"],"e":[0.215,0.61,0.355,1]}]},"eHTwQWM4Sfy9":{"transform":{"data":{"t":{"x":-575.089966,"y":-872.660004}},"keys":{"o":[{"t":500,"v":{"x":575.089966,"y":836.255197,"type":"corner"},"e":[0.215,0.61,0.355,1]},{"t":1000,"v":{"x":575.089966,"y":872.660004,"type":"corner"}},{"t":2500,"v":{"x":575.089966,"y":872.660004,"type":"corner","start":{"x":575.089966,"y":872.660004},"end":{"x":575.089966,"y":872.660004}},"e":[0.215,0.61,0.355,1]},{"t":3000,"v":{"x":575.089966,"y":836.255197,"type":"corner","start":{"x":575.089966,"y":836.255197},"end":{"x":575.089966,"y":836.255197}},"e":[0.215,0.61,0.355,1]}]}}},"eHTwQWM4Sfy11":{"transform":{"data":{"t":{"x":-708.637579,"y":-626.051951}},"keys":{"o":[{"t":500,"v":{"x":573.98493,"y":626.051954,"type":"corner"},"e":[0.215,0.61,0.355,1]},{"t":1000,"v":{"x":708.637591,"y":626.051954,"type":"corner"}},{"t":2500,"v":{"x":708.637591,"y":626.051954,"type":"corner","start":{"x":708.637591,"y":626.051954},"end":{"x":708.637591,"y":626.051954}},"e":[0.215,0.61,0.355,1]},{"t":3000,"v":{"x":573.98493,"y":626.051954,"type":"corner","start":{"x":573.98493,"y":626.051954},"end":{"x":573.98493,"y":626.051954}},"e":[0.215,0.61,0.355,1]}],"r":[{"t":500,"v":15.190318,"e":[0.215,0.61,0.355,1]},{"t":1000,"v":0},{"t":2500,"v":0,"e":[0.215,0.61,0.355,1]},{"t":3000,"v":15.190318,"e":[0.215,0.61,0.355,1]}]}}},"eHTwQWM4Sfy12":{"transform":{"data":{"t":{"x":-1087.51673,"y":-732.213787}},"keys":{"o":[{"t":500,"v":{"x":756.392146,"y":785.350743,"type":"corner"},"e":[0.215,0.61,0.355,1]},{"t":1000,"v":{"x":1087.516731,"y":732.213788,"type":"corner"}},{"t":2500,"v":{"x":1087.516731,"y":732.213788,"type":"corner","start":{"x":1087.516731,"y":732.213788},"end":{"x":1087.516731,"y":732.213788}},"e":[0.215,0.61,0.355,1]},{"t":3000,"v":{"x":756.392146,"y":785.350743,"type":"corner","start":{"x":756.392146,"y":785.350743},"end":{"x":756.392146,"y":785.350743}},"e":[0.215,0.61,0.355,1]}],"r":[{"t":1000,"v":0,"e":[0.445,0.05,0.55,0.95]},{"t":1200,"v":-32.660192,"e":[0.445,0.05,0.55,0.95]},{"t":1400,"v":5.753169,"e":[0.445,0.05,0.55,0.95]},{"t":1600,"v":-32.660192,"e":[0.445,0.05,0.55,0.95]},{"t":1800,"v":5.753169,"e":[0.445,0.05,0.55,0.95]},{"t":2000,"v":0}]}}},"eHTwQWM4Sfy19":{"opacity":[{"t":500,"v":0,"e":[0.215,0.61,0.355,1]},{"t":1000,"v":1},{"t":2500,"v":1,"e":[0.215,0.61,0.355,1]},{"t":3000,"v":0,"e":[0.215,0.61,0.355,1]}]},"eHTwQWM4Sfy23":{"transform":{"data":{"t":{"x":-788.760009,"y":-588.690002}},"keys":{"o":[{"t":500,"v":{"x":788.777948,"y":694.221929,"type":"corner"},"e":[0.215,0.61,0.355,1]},{"t":1000,"v":{"x":788.76001,"y":588.690003,"type":"corner"}},{"t":2500,"v":{"x":788.76001,"y":588.690003,"type":"corner","start":{"x":788.76001,"y":588.690003},"end":{"x":788.76001,"y":588.690003}},"e":[0.215,0.61,0.355,1]},{"t":3000,"v":{"x":788.777948,"y":694.221929,"type":"corner","start":{"x":788.777948,"y":694.221929},"end":{"x":788.777948,"y":694.221929}},"e":[0.215,0.61,0.355,1]}]}}},"eHTwQWM4Sfy24":{"stroke-dashoffset":[{"t":700,"v":42.556678,"e":[0.215,0.61,0.355,1]},{"t":900,"v":86},{"t":2500,"v":86,"e":[0.215,0.61,0.355,1]},{"t":2600,"v":42.556678,"e":[0.215,0.61,0.355,1]}]},"eHTwQWM4Sfy25":{"d":[{"t":500,"v":["M",748.618157,578.896078,"C",761.079637,582.807894,787.181894,582.257538,798.90984,578.502282],"e":[0.215,0.61,0.355,1]},{"t":1000,"v":["M",736.36,574.65,"C",757.020966,598.059996,803.320985,590.91,811.25,573.23]},{"t":2500,"v":["M",736.36,574.65,"C",757.020966,598.059996,803.320985,590.91,811.25,573.23],"e":[0.215,0.61,0.355,1]},{"t":3000,"v":["M",748.618157,578.896078,"C",761.079637,582.807894,787.181894,582.257538,798.90984,578.502282],"e":[0.215,0.61,0.355,1]}]},"eHTwQWM4Sfy26":{"opacity":[{"t":200,"v":0,"e":[1,1]},{"t":300,"v":1},{"t":500,"v":1,"e":[0.215,0.61,0.355,1]},{"t":700,"v":0}]},"eHTwQWM4Sfy27":{"opacity":[{"t":800,"v":0,"e":[0.39,0.575,0.565,1]},{"t":1100,"v":0.2},{"t":2500,"v":0.2,"e":[0.215,0.61,0.355,1]},{"t":2800,"v":0,"e":[0.39,0.575,0.565,1]}]},"eHTwQWM4Sfy28":{"opacity":[{"t":800,"v":0,"e":[0.39,0.575,0.565,1]},{"t":1100,"v":0.2},{"t":2500,"v":0.2,"e":[0.215,0.61,0.355,1]},{"t":2800,"v":0,"e":[0.39,0.575,0.565,1]}]},"eHTwQWM4Sfy29":{"transform":{"data":{"o":{"x":882.419983,"y":525.429993,"type":"corner"},"r":-8.315017,"t":{"x":-882.419983,"y":-525.429993}},"keys":{"s":[{"t":1800,"v":{"x":1,"y":1},"e":[0.445,0.05,0.55,0.95]},{"t":1900,"v":{"x":1.409659,"y":0.265835},"e":[0.445,0.05,0.55,0.95]},{"t":2000,"v":{"x":1,"y":1}},{"t":2700,"v":{"x":1,"y":1},"e":[0.445,0.05,0.55,0.95]},{"t":2800,"v":{"x":1.409659,"y":0.265838},"e":[0.445,0.05,0.55,0.95]},{"t":2900,"v":{"x":1,"y":1}}]}}},"eHTwQWM4Sfy30":{"transform":{"data":{"o":{"x":882.419983,"y":525.429993,"type":"corner"},"t":{"x":0.000017,"y":0.000007}},"keys":{"s":[{"t":500,"v":{"x":0.5,"y":0.5},"e":[0.215,0.61,0.355,1]},{"t":1000,"v":{"x":1,"y":1}},{"t":2500,"v":{"x":1,"y":1},"e":[0.215,0.61,0.355,1]},{"t":3000,"v":{"x":0.5,"y":0.5},"e":[0.215,0.61,0.355,1]}]}}},"eHTwQWM4Sfy31":{"opacity":[{"t":800,"v":0,"e":[0.215,0.61,0.355,1]},{"t":900,"v":1},{"t":2500,"v":1,"e":[0.215,0.61,0.355,1]},{"t":2600,"v":0,"e":[0.215,0.61,0.355,1]}]},"eHTwQWM4Sfy32":{"transform":{"data":{"o":{"x":634.119995,"y":557.159973,"type":"corner"},"r":-8.315017,"t":{"x":-634.119995,"y":-557.159973}},"keys":{"s":[{"t":1800,"v":{"x":1,"y":1},"e":[0.445,0.05,0.55,0.95]},{"t":1900,"v":{"x":1.409659,"y":0.265838},"e":[0.445,0.05,0.55,0.95]},{"t":2000,"v":{"x":1,"y":1}},{"t":2700,"v":{"x":1,"y":1},"e":[0.445,0.05,0.55,0.95]},{"t":2800,"v":{"x":1.409659,"y":0.265838},"e":[0.445,0.05,0.55,0.95]},{"t":2900,"v":{"x":1,"y":1}}]}}},"eHTwQWM4Sfy33":{"transform":{"data":{"o":{"x":634.119995,"y":557.159973,"type":"corner"},"t":{"x":0.000005,"y":0.000027}},"keys":{"s":[{"t":500,"v":{"x":0.5,"y":0.5},"e":[0.215,0.61,0.355,1]},{"t":1000,"v":{"x":1,"y":1}},{"t":2500,"v":{"x":1,"y":1},"e":[0.215,0.61,0.355,1]},{"t":3000,"v":{"x":0.5,"y":0.5},"e":[0.215,0.61,0.355,1]}]}}},"eHTwQWM4Sfy34":{"opacity":[{"t":800,"v":0,"e":[0.215,0.61,0.355,1]},{"t":900,"v":1},{"t":2500,"v":1,"e":[0.215,0.61,0.355,1]},{"t":2600,"v":0,"e":[0.215,0.61,0.355,1]}]},"eHTwQWM4Sfy36":{"transform":{"data":{"o":{"x":670.88,"y":373.54,"type":"corner"},"t":{"x":-670.88,"y":-373.54}},"keys":{"r":[{"t":200,"v":0,"e":[0.215,0.61,0.355,1]},{"t":300,"v":25.830655,"e":[0.39,0.575,0.565,1]},{"t":500,"v":0,"e":[0.39,0.575,0.565,1]},{"t":700,"v":-37.646886,"e":[0.39,0.575,0.565,1]},{"t":1400,"v":0,"e":[0.39,0.575,0.565,1]},{"t":1700,"v":-7.615393,"e":[0.39,0.575,0.565,1]},{"t":2300,"v":0,"e":[0.39,0.575,0.565,1]},{"t":2500,"v":0,"e":[0.39,0.575,0.565,1]},{"t":2700,"v":14.884499,"e":[0.39,0.575,0.565,1]},{"t":3400,"v":0}]}}},"eHTwQWM4Sfy38":{"opacity":[{"t":500,"v":0,"e":[0.215,0.61,0.355,1]},{"t":1000,"v":1},{"t":2500,"v":1,"e":[0.215,0.61,0.355,1]},{"t":3000,"v":0,"e":[0.215,0.61,0.355,1]}]},"eHTwQWM4Sfy39":{"opacity":[{"t":500,"v":0,"e":[0.215,0.61,0.355,1]},{"t":1000,"v":0.8},{"t":2500,"v":0.8,"e":[0.215,0.61,0.355,1]},{"t":3000,"v":0,"e":[0.215,0.61,0.355,1]}]}},"s":"MDPA1ZDk0VDNiNR2Q4ZThiN2E4WZDgyODg4N0JBHM2I1M0c0ZDRQ5NDk0OTQ1MA2I3ZDgyOGJSUN2U3YzhkODIO4OEo4N0EzYkHg1MzRhNDUzYVjgyOGQ3ZThiDN2E4ZDgyODgC4NzhjM2I1MzUQ5NDUzYjdmOVDI4NTg1M2I1LMzRhNDUzYjdGhVzg1OGRUN2GU4Yjg3N2E4ZEDdlM2I1MzdmSN2E4NUQ4YzdNlNDUzYjhjODYk3ZTdlN2QzYJjUzNGE0NTNiEN2Y4OThjM2IV1M0E0YTQ5NDXk5Ng|"}],"options":"MDOAxZTk0M2I4YVzhkUTdhOGI4QZDNiNTMzYjhQjN2M4Yjg4ODCVNODUzYkg0NAVMzYjhjN2M4JYlA4ODg1ODUBzYjUzNGI0ZTFk2"},'https://cdn.svgator.com/ply/','__SVGATOR_PLAYER__','2022-05-04',window,document,'script','http://www.w3.org/2000/svg','http://www.w3.org/1999/xlink')
]]></script>
</svg>
