<svg id="e0JOsGPILRD1" xmlns="http://www.w3.org/2000/svg" xmlns:xlink="http://www.w3.org/1999/xlink" viewBox="0 0 700 400" shape-rendering="geometricPrecision" text-rendering="geometricPrecision" style="background-color:#f2e8e0"><g transform="translate(58.738724-97.864898)"><g id="e0JOsGPILRD3"><g clip-path="url(#e0JOsGPILRD17)"><path id="e0JOsGPILRD5" d="M398.25918,439.607931l-30.859655-12.200329" fill="none" stroke="#b74a0f" stroke-width="10" stroke-linecap="round" stroke-linejoin="round" stroke-dashoffset="-33.56" stroke-dasharray="33.557868"/><path id="e0JOsGPILRD6" d="M390.252538,407.820129L368.834858,431.7136" fill="none" stroke="#b74a0f" stroke-width="10" stroke-linecap="round" stroke-linejoin="round" stroke-dashoffset="-34.41" stroke-dasharray="34.410698"/><path id="e0JOsGPILRD7" d="M413.390678,436.676315l-25.68811-8.962232" transform="translate(0-.132976)" fill="none" stroke="#b74a0f" stroke-width="10" stroke-linecap="round" stroke-linejoin="round" stroke-dashoffset="-27.21" stroke-dasharray="27.206628"/><path id="e0JOsGPILRD8" d="M407.710527,405.004859q-.132977,0-19.503273,20.775982" transform="translate(0 0.000001)" fill="none" stroke="#b74a0f" stroke-width="10" stroke-linecap="round" stroke-linejoin="round" stroke-dashoffset="-28.5" stroke-dasharray="28.497175"/><path id="e0JOsGPILRD9" d="M428.276181,419.911768l-24.443089,3.533071" fill="none" stroke="#b74a0f" stroke-width="11" stroke-linecap="round" stroke-linejoin="round" stroke-dashoffset="-24.88" stroke-dasharray="24.882501"/><path id="e0JOsGPILRD10" d="M205.519478,448.578802q.531911.132978,26.064778-3.58142" fill="none" stroke="#b74a0f" stroke-width="11" stroke-linecap="round" stroke-linejoin="round" stroke-dashoffset="-26.97" stroke-dasharray="26.970712"/><path id="e0JOsGPILRD11" d="M225.22707,429.096579q.66489.797867,24.264284,13.314222" transform="translate(.000001 0)" fill="none" stroke="#b74a0f" stroke-width="10" stroke-linecap="round" stroke-linejoin="round" stroke-dashoffset="-28.39" stroke-dasharray="28.394235"/><path id="e0JOsGPILRD12" d="M226.423871,459.681477c0,0,24.0034-16.678257,24.0034-16.678257" transform="translate(0 0.000001)" fill="none" stroke="#b74a0f" stroke-width="10" stroke-linecap="round" stroke-linejoin="round" stroke-dashoffset="-29.23" stroke-dasharray="29.228885"/><path id="e0JOsGPILRD13" d="M242.647164,458.750632l23.756452-17.732605" fill="none" stroke="#b74a0f" stroke-width="10" stroke-linecap="round" stroke-linejoin="round" stroke-dashoffset="-30.38" stroke-dasharray="30.381016"/><path id="e0JOsGPILRD14" d="M238.681106,426.891314l29.646198,14.126712" transform="translate(-.132978 0.000001)" fill="none" stroke="#b74a0f" stroke-width="10" stroke-linecap="round" stroke-linejoin="round" stroke-dashoffset="-32.84" stroke-dasharray="32.839931"/><path id="e0JOsGPILRD15" d="M318.894505,435.473383l41.963812-5.310433" fill="none" stroke="#b74a0f" stroke-width="10" stroke-linecap="round" stroke-linejoin="round" stroke-dashoffset="42.29849" stroke-dasharray="42.29849"/><path id="e0JOsGPILRD16" d="M316.512422,435.8374l44.045602-6.109107" transform="matrix(-.966426 0.256946 0.256946 0.966426 512.905585-67.05366)" fill="none" stroke="#b74a0f" stroke-width="10" stroke-linecap="round" stroke-linejoin="round" stroke-dashoffset="44.467249" stroke-dasharray="44.467249"/><clipPath id="e0JOsGPILRD17"><path d="M319.44,439.3c-23.43,3.18-46.21,4.68-46.21,1.55c0-2.83,21.15-5.54,44.49-8.62c18.66-2.46,44.34-5.98,44.34-2.09c0,3.19-25.78,6.87-42.62,9.16Zm-50.92.81c2.69,2.17-5.86,8.46-8.66,10.5s-11.22,8.19-13.72,5.8c-3.38-3.24,16.98-12.39,14.7-14.9-2.13-2.34-20.05-8.87-17.62-12.63c1.88-2.91,10.58,2.36,13.74,3.77c3.17,1.4,9.98,6.18,11.56,7.46Zm-16.07,1.86c1.25,2.8-4.96,7.07-7.76,9.11s-11.05,8.66-13.54,6.26c-3.38-3.24,12.93-10.43,11.53-14.27-1.22-3.36-17.04-8.39-14.61-12.14c1.88-2.91,10.2,2.59,13.37,4s10.18,5.19,11.01,7.04Zm123.96-23.26c2.59-2.29,8.83-10.04,11.5-7.84c3.45,2.84-10.55,14.97-12.1,16.91-2.24,2.81,19.85,6.1,17.61,10.21-1.66,3.04-11.55-.29-14.83-1.39s-13.33-4.51-11.42-7.4c1.12-1.69,6.64-8.2,9.24-10.49Zm15.47-2.17c2.59-2.29,8.82-10.05,11.49-7.85c3.45,2.85-10.21,13-10.81,16.52-.52,3.01,18.08,5.48,15.84,9.59-1.65,3.04-11.84-1.29-15.12-2.39s-10.17-2.79-9.82-5.84c.23-2.02,5.83-7.74,8.42-10.03Zm19.48,9.61c-5.46.79-12.5.07-12.76-1.87s7.8-4.58,11.2-5.08c5.45-.81,12.45-.09,12.8,1.56.39,1.85-5.48,4.56-11.24,5.39Zm-187.9,23.17c-3.27.54-12.18.23-12.42-1.71-.23-1.95,8.4-4.59,11.7-4.98c3.91-.47,12.18.31,12.4,2.09.22,1.77-7.25,3.87-11.68,4.6Z" fill="#b74a0f"/></clipPath></g></g><g id="e0JOsGPILRD27"><g><g clip-path="url(#e0JOsGPILRD33)"><path id="e0JOsGPILRD30" d="M172.691786,329.84054c2.424676,22.35627,2.372646,45.175318-.061362,66.638842-2.329475,20.541735-19.906423,23.082981-34.518586,21.388817" transform="translate(0 0.000001)" fill="none" stroke="#b74a0f" stroke-width="22" stroke-linecap="round" stroke-linejoin="round" stroke-dashoffset="113.029951" stroke-dasharray="113.029951"/><path id="e0JOsGPILRD31" d="M138.747149,420.409445c-14.612163-1.694164.563998-55.623287,19.262851-73.989446C180.062226,324.760131,203.978424,325.01,210.3,343.01s-29.81,29.099999-29.81,31.339999s33.78-2.989998,37.7,17.770001-39.247907,30.546336-72.128716,18.469999" transform="translate(0 0.000001)" fill="none" stroke="#b74a0f" stroke-width="22" stroke-linecap="round" stroke-linejoin="round" stroke-dashoffset="322.705065" stroke-dasharray="322.705065"/><path id="e0JOsGPILRD32" d="M239.917505,352.249113c6.447599,2.460001,9.120022,18.658282,5.560022,25.778283s-7.25526,26.144519,1.51637,30.327393c11.465598,5.46753,24.893539-17.019115,27.199599-59.462189c5.132843,39.274653-9.228797,51.835209,5.592034,58.680279c12.857012,5.938071,7.992338-20.149457,20.283284-59.041802-.200551,37.722307,1.818237,58.047004,1.992514,62.897517c2.171328-34.322158,13.658188-65.916903,25.449724-60.634294c16.530896,7.405842-8.611335,23.596114,2.793295,46.140152c9.258438,18.301564,31.826876-12.465527,28.644189-56.890542-.265224,23.737546,1.621465,51.006089,1.621464,60.556089-.295345-22.894285,16.281154-64.269225,30.0728-53.129818c12.187807,9.843998-13.128586,22.146202-.928284,43.894568c4.007683,7.144131,14.852543,2.917463,25.461502-13.261199.795672,12.598139,11.497313,13.640318,18.163982,12.986449c12.071551-1.183982,20.534786-16.596436,9.33-23.09-10.75-6.23-28.952714-3.820708-23.780846-22.121162c3.92066-13.873103,33.550832-9.813287,25.991949,15.250379" transform="translate(0 0.000001)" fill="none" stroke="#b74a0f" stroke-width="20" stroke-linecap="round" stroke-linejoin="round" stroke-dashoffset="879.635632" stroke-dasharray="879.635632"/><clipPath id="e0JOsGPILRD33"><path d="M228.57,391.09c2.06,19.11-16.84,29.25-34.32,31.14-8.17.89-16.02.08-21.86-1.93-3.86,4.05-7.71,5.13-10.49,5.43-6.7.72-10.41-3.01-10.99-8.4-.76-7.03,4.46-10.73,12.25-12.07c1.19-5.75,4.04-16.13,1.57-58.84-3.1,1.83-5.58,3.42-6.72,3.54-1.15.12-2.11-1.1-2.23-2.24-.55-5.07,13.17-20.43,34.24-22.71c18.95-2.04,29.94,7.84,31.12,18.79c1.05,9.81-5.67,19.46-15.54,24.49c11.37,2.74,21.56,9.9,22.97,22.8Zm-44.16-53.73c.71,9.68,1.25,19.21,1.11,28.64c7.44-1.47,18.45-5.13,17.16-17.06-.74-6.87-5.38-13.14-15.84-12.01-.82.09-1.62.34-2.43.43Zm23.93,54.76c-1.4-12.91-12.93-15.63-23-15.53-.63,10.98-2.12,21.72-4.85,31.6c0,0,4.93,1.28,11.79.54c12.75-1.37,16.98-8.11,16.06-16.61Zm224.44,4.31c-9.98,1.08-17.5-1.87-21.99-5.79-3.7,4.78-9.26,9.17-16.56,9.96-9.47,1.02-14.77-5.18-15.62-13.02-1.08-9.97,4.47-21.31,3.89-26.7-.19-1.8-1.1-2.53-2.57-2.37-6.05.65-11.37,15.61-9.8,30.15c1.09,10.13-3.52,14.93-9.56,15.58-4.27.46-7.97-1.63-9.7-5.91-3.66,4.23-8.85,7.91-15.46,8.62-9.47,1.03-14.77-5.18-15.62-13.02-1.08-9.97,4.47-21.31,3.89-26.7-.19-1.8-1.1-2.53-2.57-2.37-6.05.65-11.37,15.61-9.8,30.15c1.09,10.13-3.52,14.93-9.56,15.58-3.93.43-7.39-1.32-9.26-4.95-3.14,3.72-7.54,6.77-13.28,7.39-10.12,1.09-13.25-9.48-13.25-9.48-2.52,5.73-8.47,11.82-17.13,12.76-10.13,1.09-14.55-6.2-15.4-14.04-1.24-11.43,4.48-18.17,3.8-33.63-.28-7.24,1.73-13.07,8.92-13.85c6.05-.66,9.65,3.58,10.37,10.28c1.01,9.31-6.81,19.58-5.59,30.85.44,4.08,2.25,5.54,4.21,5.33c6.86-.74,11.31-17.75,9.24-36.86-.77-7.19,1.88-13.26,8.9-14.02c6.04-.66,9.54,2.6,10.26,9.3c1,9.31-5.61,16.97-3.93,32.49.44,4.09,2.37,6.69,4.66,6.44c3.66-.4,5.83-3.22,7.51-5.81c1.09-4.64,2.96-9.12,2.97-14.99.04-1.16-.09-2.31-.21-3.45-.49-4.57-1.77-8.73-2.3-13.63-.62-5.72,2.12-10.97,7.67-11.57c8-.87,9.83,6.87,10.27,10.95.14,1.31.08,2.31.08,2.31s6.29-16.71,18.71-18.05c11.28-1.21,13.54,7.47,14.03,12.04c1.02,9.47-6.81,22.72-5.94,30.72.43,3.92,3.4,5.41,5.85,5.15c3.96-.43,6.07-3.29,7.69-5.9c1.09-4.61,2.94-9.08,2.95-14.92.04-1.16-.09-2.31-.21-3.45-.5-4.57-1.77-8.73-2.3-13.63-.62-5.72,2.12-10.97,7.67-11.57c8-.87,9.83,6.87,10.27,10.95.14,1.31.08,2.31.08,2.31s6.29-16.71,18.71-18.05c11.28-1.21,13.54,7.47,14.03,12.04c1.02,9.47-6.8,22.72-5.94,30.72.43,3.92,3.4,5.41,5.85,5.15c1.87-.2,3.32-.95,4.51-1.95-.1-.4-.18-.78-.22-1.16-.69-6.37,2.49-10.51,7.56-11.06c9.8-1.06,9.12,12.57,19.74,11.42c4.9-.52,6.24-3.48,5.92-6.42-.98-8.98-25.37-6.84-27.1-22.85-1.06-9.8,4.88-19.04,21.22-20.8c8.66-.94,18.6,2.29,19.55,11.11.67,6.21-3.12,9.43-8.02,9.96-4.08.44-7.87-.97-8.1-3.09-.1-.98.41-2.36.25-3.83-.25-2.28-1.66-4.61-5.09-4.24-2.61.28-5.45,3.07-5.03,6.99c1.18,10.95,26.75,4.38,28.78,23.17c1.59,14.7-10.03,21.9-22.9,23.26Z" transform="translate(0 0.000001)" fill="#b74a0f"/></clipPath></g></g><g transform="translate(0 0.000001)"><g id="e0JOsGPILRD36" transform="translate(0-40)"><circle r="0.71" transform="translate(443.38 343.92)" fill="#f2e8e0"/><circle r="0.71" transform="translate(417.45 356.76)" fill="#f2e8e0"/><circle r="0.78" transform="translate(447.75 341.11)" fill="#f2e8e0"/><circle r="0.93" transform="translate(448.69 347.07)" fill="#f2e8e0"/><circle r="0.87" transform="translate(422.59 361.1)" fill="#f2e8e0"/></g><g id="e0JOsGPILRD42" transform="translate(0-36)"><circle r="0.9" transform="translate(385.46 348.32)" fill="#f2e8e0"/><circle r="0.91" transform="translate(392.09 345.18)" fill="#f2e8e0"/><circle r="0.67" transform="translate(393.04 351.14)" fill="#f2e8e0"/><circle r="0.92" transform="translate(360.22 346.7)" fill="#f2e8e0"/><circle r="1.01" transform="translate(363.99 351.41)" fill="#f2e8e0"/></g><g id="e0JOsGPILRD48" transform="translate(.000001-35)"><circle r="0.54" transform="translate(325.8 356.19)" fill="#f2e8e0"/><circle r="0.84" transform="translate(330.04 349.96)" fill="#f2e8e0"/><circle r="0.62" transform="translate(333.81 354.67)" fill="#f2e8e0"/><circle r="0.95" transform="translate(295.33 359.14)" fill="#f2e8e0"/><circle r="0.79" transform="translate(299.1 363.85)" fill="#f2e8e0"/></g><g id="e0JOsGPILRD54" transform="translate(0-40)"><circle r="1.08" transform="translate(267.66 359.42)" fill="#f2e8e0"/><circle r="1.02" transform="translate(271.43 364.13)" fill="#f2e8e0"/><circle r="1.04" transform="translate(248.25 360.92)" fill="#f2e8e0"/><circle r="0.95" transform="translate(252.02 365.63)" fill="#f2e8e0"/></g><g id="e0JOsGPILRD59" transform="translate(0-60)"><circle r="0.86" transform="translate(201.25 334.92)" fill="#f2e8e0"/><circle r="0.94" transform="translate(210.76 333.89)" fill="#f2e8e0"/><circle r="0.93" transform="translate(211.53 341.03)" fill="#f2e8e0"/><circle r="0.98" transform="translate(219.17 382.78)" fill="#f2e8e0"/><circle r="0.87" transform="translate(212.91 378.57)" fill="#f2e8e0"/></g></g></g><g id="e0JOsGPILRD65" transform="matrix(.399898-.00902 0.00902 0.399898 46.961063 113.544465)" opacity="0"><path id="e0JOsGPILRD66" d="M349.907324,272.297005c-2.096596,1.329281-3.304836,2.029073-5.453354,3.135609-2.146112,1.105297-3.481501,1.729178-5.739151,2.613812-2.780676,1.089576-4.398782,1.831865-8.035775,3.106415-3.239325,1.135191-2.920942.832185-8.928356,2.441699-4.379778,1.173436-6.834594,1.555815-11.090688,2.30546-2.688633.473561-10.290013,1.009546-13.17,1.09-14.950066.417641-29.67-1.73-42.41-5.3-27.08-7.6-41.42-29.05-49.1-48.51-.47-1.19-2.06-1-2,.23c2.03,41.88,41.4,80.77,85.87,80.19c44.74-.59,80.73-19.03,92.51-77.1.13-.66-.77-.98-1.08-.38-7.03,13.3-15.239505,23.135955-25.61,32.06-2.203403,1.896078-3.669681,2.790007-5.762676,4.117005Z" transform="matrix(1.009531 0 0 1-3.228425-5.962497)" fill="#b74a0f"/><g id="e0JOsGPILRD67" transform="translate(.028717 16.479823)"><path d="M210.3,235.05c39.58,74.08,194.62,42.23,170.27-46.36-26.68-97.07-218.21-43.37-170.27,46.36Z" fill="#b74a0f"/><path d="M366.13,193.65c1.94-10.11-4.25-24.39-11.87-30.78-1.05-.88-2.31.43-1.66,1.71c8,15.71,10.25,22.34,11.23,28.89.21,1.45,2.03,1.59,2.3.18Z" fill="#f2e8e0"/><path d="M369.019644,197.97905c-.391578-16.065981-4.612629-25.585189-15.215639-34.475559-1.051336-.88152-2.244457.417827-1.382232,1.565636c7.94374,10.574847,13.594834,26.17265,14.559475,32.72493.213399,1.449504,2.073376,1.620185,2.038396.184993Z" transform="matrix(.996062-.088664 0.088664 0.996062-49.511666 26.163468)" fill="#f2e8e0"/><path d="M270.08,216c-7.7-12.02-21.13-25.43-34.94-25.66-1.67-.03-1.97,2.41-.41,3.29c14.58,8.24,25.02,16.86,33.17,24.5c1.44,1.36,3.26-.43,2.18-2.13Z" fill="#f2e8e0"/><path d="M270.08,216c-7.7-12.02-21.13-25.43-34.94-25.66-1.67-.03-1.97,2.41-.41,3.29c14.58,8.24,25.02,16.86,33.17,24.5c1.44,1.36,3.26-.43,2.18-2.13Z" transform="matrix(.972028 0.234865-.234865 0.972028 93.095583-74.593592)" fill="#f2e8e0"/><g id="e0JOsGPILRD73" transform="translate(-26.287169-23.380375)"><path d="M256.59,223.9c.06.67-.4,1.21-1.02,1.2s-1.17-.56-1.23-1.24.4-1.21,1.02-1.2s1.17.57,1.23,1.24Z" fill="#f2e8e0"/><path d="M231.35,229.71c.07.75-.43,1.35-1.13,1.34s-1.32-.63-1.39-1.38.43-1.35,1.13-1.34c.69.01,1.31.63,1.39,1.38Z" fill="#f2e8e0"/><path d="M230.58,208.15c.06.6-.34,1.08-.89,1.07s-1.05-.5-1.1-1.1c-.06-.6.34-1.08.89-1.07.54,0,1.04.5,1.1,1.1Z" fill="#f2e8e0"/><path d="M260.49,181.22c.08.97-.57,1.75-1.45,1.73s-1.66-.83-1.74-1.8c-.08-.98.57-1.75,1.45-1.73.88.01,1.66.82,1.74,1.8Z" fill="#f2e8e0"/><path d="M251.52,185.97c.05.56-.32,1-.83.99s-.96-.47-1.01-1.03.32-1,.83-.99c.51,0,.96.47,1.01,1.03Z" fill="#f2e8e0"/><path d="M240.95,177.1c.07.82-.47,1.48-1.21,1.46s-1.41-.7-1.49-1.52.47-1.48,1.21-1.46c.75.01,1.42.7,1.49,1.52Z" fill="#f2e8e0"/><path d="M335.49,160.1c.03.54-.34.97-.81.95-.48-.01-.88-.46-.91-1s.34-.97.81-.95c.48.01.89.46.91,1Z" fill="#f2e8e0"/><path d="M344.7,174.63c.04.79-.51,1.42-1.21,1.4s-1.3-.67-1.34-1.47c-.04-.79.51-1.42,1.21-1.41.71.02,1.31.68,1.34,1.48Z" fill="#f2e8e0"/><path d="M345.44,166.12c.02.52-.33.93-.78.91-.46-.01-.84-.44-.87-.96-.02-.52.33-.93.79-.91.45.01.84.44.86.96Z" fill="#f2e8e0"/><path d="M372.01,183.77c.02.59-.39,1.06-.92,1.05s-.97-.5-.99-1.1c-.02-.59.39-1.07.92-1.05.53.01.97.5.99,1.1Z" fill="#f2e8e0"/></g><path d="M202.63,205.6c1.23-11.23,11.19-14.46,19.57-14.79c2.45-.09,2.66-3.79.27-4.87-6.11-2.75-13.71-3-16.57,1.01-3.89,5.47-6,13.1-3.27,18.65Z" fill="#f2e8e0"/><path d="M221.57,166.47c9.78-10.43,28.04-9.46,37.17-6.5c2.12.69,3.46-2.03,1.92-3.91-6.39-7.81-13.27-8.14-21.06-5.01-6.31,2.54-19.91,9.4-18.03,15.42Z" fill="#f2e8e0"/><path d="M264.03,142.81c14.04-3.68,27.73-.49,35.17,3.1c2.27,1.1,3.83-1.86,2.24-4.03-3.56-4.84-10.77-5.88-17.03-5.83-6.79.06-19.27,4.28-20.38,6.76Z" fill="#f2e8e0"/><path d="M254.34,146.21c-4.1,1.56-6.46,2.67-6.93,2.99-1.6,1.12,3.49-.21,6.94,1.52c2.66,1.34-.01-4.51-.01-4.51Z" fill="#b74a0f"/><path d="M300.5,137.05c-1.25-.01-4.95-.03-6.06.23-1.41.33,3.39,1,5.24,2.73.88.83.82-2.96.82-2.96Z" fill="#b74a0f"/><path d="M209.51,181.6c-1.17,1.97-1.79,3.15-2,3.82-.21.68,2.47-1.88,7.17-1.51c4.69.37-5.17-2.31-5.17-2.31Z" fill="#b74a0f"/></g><g id="e0JOsGPILRD90" transform="matrix(.78607 0.12004-.131246 0.859452 102.792135 6.801664)" opacity="0"><path id="e0JOsGPILRD91" d="M372.07,240.87c-5.834969,7.094141-10.390038,15.897866-9.254483,6.412788.193021-1.612268-3.743137-.165711-5.320032,4.125041-.691526,1.881651-1.024542,2.725087-1.569771,1.396346-.846458-2.062846-.841043-2.347252-1.349941-3.713933-.536828-1.441689-3.418603-5.599259-7.337958-5.347608-2.33385.14985-4.074664,3.452214-4.448949,4.638817-.317175,1.005545-1.592646,2.818165-2.235051,3.678122-.509474.682008-2.654081,2.314758-5.484329,2.814374-.053842.000982-.042935-.01297-.096622-.008772-2.691957.345616-5.737853.841812-6.920356-1.74044-1.004633-2.193834-5.955232-9.790451-11.50873-8.352422-3.168141.820362-3.63716,5.189764-3.659339,10.373008-.042224,9.867804-.451451,10.413018-1.365238,13.884866-.08669.329371.131095-.31677.052581.014191-.977741,4.121498,1.55544,6.460709-3.622566,3.974116-2.386894-1.146239-1.992479-2.342687-4.124637-.480781-1.008493.880666-.07045,1.764457.890565,3.257601.581896.904101,3.452069-.553056-29.081324,1.5866-11.992496.788722,15.832358,5.089143,55.145339-6.295124C357.243894,263.423123,374.692262,237.68186,372.07,240.87Z" fill="#f2e8e0"/><g id="e0JOsGPILRD92" transform="matrix(.715495-.055558 0.033996 0.437808 91.790755 179.478201)" opacity="0"><path id="e0JOsGPILRD93" d="M322.50884,222.676119c.192462,2.932316-1.791247,5.88311-4.391507,5.742404-2.481524-.134281-3.998466-1.883657-4.207333-4.528523-.213162-2.699251,1.18-5.16,3.63-5.57c2.45-.4,4.792151,1.664116,4.96884,4.356119Z" fill="#b74a0f"/><path id="e0JOsGPILRD94" d="M337.084914,219.013717c.149679,2.624715,1.914001,3.769082,4.223372,3.530629c2.396015-.247399,4.01714-2.224172,3.727478-5.117109s-2.075764-4.257237-4.465764-3.947237c-2.38.32-3.638966,2.835343-3.485086,5.533717Z" fill="#b74a0f"/><path id="e0JOsGPILRD95" d="M326.084319,229.822813c4.169513-2.866231,5.22103-3.183581,11.059797-1.629128c1.662133.442509-1.622879,5.516389-5.965476,5.835332-4.451472.326939-6.57244-3.190107-5.094321-4.206204Z" fill="#b74a0f"/></g></g></g></g>
<script><![CDATA[
(function(s,i,u,o,c,w,d,t,n,x,e,p,a,b){(a=Array.from(d.querySelectorAll('svg#' + i.root)).filter(n=> !n.svgatorPlayer)[0]||{}).svgatorPlayer={ready:(function(a){b=[];return function(c){return c?(b.push(c),a.svgatorPlayer):b}})(a)};w[o]=w[o]||{};w[o][s]=w[o][s]||[];w[o][s].push(i);e=d.createElementNS(n,t);e.async=true;e.setAttributeNS(x,'href',[u,s,'.','j','s','?','v','=',c].join(''));e.setAttributeNS(null,'src',[u,s,'.','j','s','?','v','=',c].join(''));p=d.getElementsByTagName(t)[0];p.parentNode.insertBefore(e,p);})('91c80d77',{"root":"e0JOsGPILRD1","version":"2022-05-04","animations":[{"elements":{"e0JOsGPILRD3":{"opacity":[{"t":3000,"v":1},{"t":3300,"v":0}]},"e0JOsGPILRD5":{"stroke-dashoffset":[{"t":660,"v":-33.56,"e":[0.445,0.05,0.55,0.95]},{"t":810,"v":0}]},"e0JOsGPILRD6":{"stroke-dashoffset":[{"t":660,"v":-34.41,"e":[0.445,0.05,0.55,0.95]},{"t":810,"v":0}]},"e0JOsGPILRD7":{"stroke-dashoffset":[{"t":710,"v":-27.21,"e":[0.445,0.05,0.55,0.95]},{"t":860,"v":0}]},"e0JOsGPILRD8":{"stroke-dashoffset":[{"t":710,"v":-28.5,"e":[0.445,0.05,0.55,0.95]},{"t":860,"v":0}]},"e0JOsGPILRD9":{"stroke-dashoffset":[{"t":770,"v":-24.88,"e":[0.445,0.05,0.55,0.95]},{"t":880,"v":0}]},"e0JOsGPILRD10":{"stroke-dashoffset":[{"t":770,"v":-26.97,"e":[0.445,0.05,0.55,0.95]},{"t":880,"v":0}]},"e0JOsGPILRD11":{"stroke-dashoffset":[{"t":710,"v":-28.39,"e":[0.445,0.05,0.55,0.95]},{"t":860,"v":0}]},"e0JOsGPILRD12":{"stroke-dashoffset":[{"t":710,"v":-29.23,"e":[0.445,0.05,0.55,0.95]},{"t":860,"v":0}]},"e0JOsGPILRD13":{"stroke-dashoffset":[{"t":660,"v":-30.38,"e":[0.445,0.05,0.55,0.95]},{"t":810,"v":0}]},"e0JOsGPILRD14":{"stroke-dashoffset":[{"t":660,"v":-32.84,"e":[0.445,0.05,0.55,0.95]},{"t":810,"v":0}]},"e0JOsGPILRD15":{"stroke-dashoffset":[{"t":560,"v":42.29849,"e":[0.445,0.05,0.55,0.95]},{"t":720,"v":0}]},"e0JOsGPILRD16":{"stroke-dashoffset":[{"t":560,"v":44.467249,"e":[0.445,0.05,0.55,0.95]},{"t":720,"v":0}]},"e0JOsGPILRD27":{"opacity":[{"t":3100,"v":1},{"t":3400,"v":0}]},"e0JOsGPILRD30":{"stroke-dashoffset":[{"t":50,"v":113.029951,"e":[0.445,0.05,0.55,0.95]},{"t":250,"v":0}]},"e0JOsGPILRD31":{"stroke-dashoffset":[{"t":0,"v":322.705065,"e":[0.445,0.05,0.55,0.95]},{"t":380,"v":0}]},"e0JOsGPILRD32":{"stroke-dashoffset":[{"t":250,"v":879.635632,"e":[0.445,0.05,0.55,0.95]},{"t":800,"v":0}]},"e0JOsGPILRD36":{"transform":{"data":{"t":{"x":-433.180008,"y":-351.149994}},"keys":{"o":[{"t":710,"v":{"x":433.180008,"y":311.149994,"type":"corner"},"e":[0.175,0.885,0.32,1.275]},{"t":860,"v":{"x":433.180008,"y":351.149994,"type":"corner"}}]}}},"e0JOsGPILRD42":{"transform":{"data":{"t":{"x":-376.504989,"y":-348.344986}},"keys":{"o":[{"t":600,"v":{"x":376.504989,"y":312.344986,"type":"corner"},"e":[0.175,0.885,0.32,1.275]},{"t":760,"v":{"x":376.504989,"y":348.344986,"type":"corner"}}]}}},"e0JOsGPILRD48":{"transform":{"data":{"t":{"x":-314.404983,"y":-356.879989}},"keys":{"o":[{"t":480,"v":{"x":314.404984,"y":321.879989,"type":"corner"},"e":[0.175,0.885,0.32,1.275]},{"t":640,"v":{"x":314.404984,"y":356.879989,"type":"corner"}}]}}},"e0JOsGPILRD54":{"transform":{"data":{"t":{"x":-259.83001,"y":-362.460007}},"keys":{"o":[{"t":370,"v":{"x":259.83001,"y":322.460007,"type":"corner"},"e":[0.175,0.885,0.32,1.275]},{"t":520,"v":{"x":259.83001,"y":362.460007,"type":"corner"}}]}}},"e0JOsGPILRD59":{"transform":{"data":{"t":{"x":-210.270004,"y":-358.354995}},"keys":{"o":[{"t":220,"v":{"x":210.270004,"y":298.354995,"type":"corner"},"e":[0.175,0.885,0.32,1.275]},{"t":370,"v":{"x":210.270004,"y":358.354995,"type":"corner"}}]}}},"e0JOsGPILRD65":{"transform":{"data":{"t":{"x":-292.272522,"y":-224.827362}},"keys":{"o":[{"t":570,"v":{"x":165.868239,"y":200.816309,"type":"corner"},"e":[0.455,0.03,0.515,0.955]},{"t":910,"v":{"x":325.369442,"y":231.101592,"type":"corner"},"e":[0.445,0.05,0.55,0.95]},{"t":1020,"v":{"x":292.272522,"y":224.827362,"type":"corner","start":{"x":292.272522,"y":224.827362},"end":{"x":292.272522,"y":224.827362}}}],"r":[{"t":570,"v":-1.292098,"e":[0.455,0.03,0.515,0.955]},{"t":910,"v":0,"e":[0.445,0.05,0.55,0.95]},{"t":1020,"v":0}],"s":[{"t":570,"v":{"x":0.4,"y":0.4},"e":[0.455,0.03,0.515,0.955]},{"t":910,"v":{"x":1.15,"y":1.1},"e":[0.445,0.05,0.55,0.95]},{"t":1020,"v":{"x":1,"y":1}}]}},"opacity":[{"t":620,"v":0,"e":[0.445,0.05,0.55,0.95]},{"t":690,"v":1},{"t":3200,"v":1},{"t":3500,"v":0}]},"e0JOsGPILRD66":{"d":[{"t":1000,"v":["M",349.907324,272.297005,"C",347.810728,273.626286,346.602488,274.326078,344.45397,275.432614,"C",342.307858,276.537911,340.972469,277.161792,338.714819,278.046426,"C",335.934143,279.136002,334.316037,279.878291,330.679044,281.152841,"C",327.439719,282.288032,327.758102,281.985026,321.750688,283.59454,"C",317.37091,284.767976,314.916094,285.150355,310.66,285.9,"C",307.971367,286.373561,300.369987,286.909546,297.49,286.99,"C",282.539934,287.407641,267.82,285.26,255.08,281.69,"C",228,274.09,213.66,252.64,205.98,233.18,"C",205.51,231.99,203.92,232.18,203.98,233.41,"C",206.01,275.29,245.38,314.18,289.85,313.6,"C",334.59,313.01,370.58,294.57,382.36,236.5,"C",382.49,235.84,381.59,235.52,381.28,236.12,"C",374.25,249.42,366.040495,259.255955,355.67,268.18,"C",353.466597,270.076078,352.000319,270.970007,349.907324,272.297005,"Z"],"e":[0.47,0,0.745,0.715]},{"t":1280,"v":["M",354.17,277.6,"C",353.9,281.75,351.62,288.02,347.02,288.7,"C",344.42,289.08,342.25,286.23,340.71,281.42,"C",338.83,275.55,332.4,279.03,331.77,284.11,"C",330.91,291.13,329.83,295.81,323.98,294.66,"C",319.53,293.79,320.96,285.92,310.66,285.9,"C",307.93,285.89,300.37,286.91,297.49,286.99,"C",282.54,287.41,267.82,285.26,255.08,281.69,"C",228,274.09,213.66,252.64,205.98,233.18,"C",205.51,231.99,203.92,232.18,203.98,233.41,"C",206.01,275.29,245.38,314.18,289.85,313.6,"C",334.59,313.01,370.58,294.57,382.36,236.5,"C",382.49,235.84,381.59,235.52,381.28,236.12,"C",374.25,249.42,364.71,259.54,355.67,268.18,"C",353.57,270.19,354.63,270.67,354.17,277.6,"Z"]}],"transform":{"data":{"t":{"x":-293.175537,"y":-272.993561}},"keys":{"o":[{"t":950,"v":{"x":292.741368,"y":267.031064,"type":"corner"},"e":[0.445,0.05,0.55,0.95]},{"t":1150,"v":{"x":293.175537,"y":272.993561,"type":"corner"}}],"s":[{"t":950,"v":{"x":1.009531,"y":1},"e":[0.445,0.05,0.55,0.95]},{"t":1080,"v":{"x":1,"y":1}}]}}},"e0JOsGPILRD67":{"transform":{"data":{"t":{"x":-292.272491,"y":-206.181854}},"keys":{"o":[{"t":950,"v":{"x":292.301208,"y":222.661677,"type":"corner"},"e":[0.445,0.05,0.55,0.95]},{"t":1150,"v":{"x":292.272491,"y":206.181854,"type":"corner"}}]}}},"e0JOsGPILRD73":{"transform":{"data":{"t":{"x":-300.297379,"y":-195.07473}},"keys":{"o":[{"t":670,"v":{"x":274.01021,"y":171.694355,"type":"corner"},"e":[0.445,0.05,0.55,0.95]},{"t":950,"v":{"x":305.571228,"y":199.819416,"type":"corner","start":{"x":305.571228,"y":199.819416},"end":{"x":305.571228,"y":199.819416}},"e":[0.445,0.05,0.55,0.95]},{"t":1060,"v":{"x":300.297379,"y":195.07473,"type":"corner"}}]}}},"e0JOsGPILRD90":{"transform":{"data":{"t":{"x":-319.486175,"y":-217.088623}},"keys":{"o":[{"t":1140,"v":{"x":325.438671,"y":231.729958,"type":"corner"},"e":[0.445,0.05,0.55,0.95]},{"t":1370,"v":{"x":319.486175,"y":217.088623,"type":"corner"}}],"r":[{"t":1140,"v":8.68251,"e":[0.445,0.05,0.55,0.95]},{"t":1370,"v":0}],"s":[{"t":1140,"v":{"x":0.795183,"y":0.869415},"e":[0.445,0.05,0.55,0.95]},{"t":1370,"v":{"x":1,"y":1}}]}},"opacity":[{"t":1160,"v":0},{"t":1170,"v":1}]},"e0JOsGPILRD91":{"d":[{"t":1140,"v":["M",372.07,240.87,"C",366.235031,247.964141,361.679962,256.767866,362.815517,247.282788,"C",363.008538,245.67052,359.07238,247.117077,357.495485,251.407829,"C",356.803959,253.28948,356.470943,254.132916,355.925714,252.804175,"C",355.079256,250.741329,355.084671,250.456923,354.575773,249.090242,"C",354.038945,247.648553,351.15717,243.490983,347.237815,243.742634,"C",344.903965,243.892484,343.163151,247.194848,342.788866,248.381451,"C",342.471691,249.386996,341.19622,251.199616,340.553815,252.059573,"C",340.044341,252.741581,337.899734,254.374331,335.069486,254.873947,"C",335.015644,254.874929,335.026551,254.860977,334.972864,254.865175,"C",332.280907,255.210791,329.235011,255.706987,328.052508,253.124735,"C",327.047875,250.930901,322.097276,243.334284,316.543778,244.772313,"C",313.375637,245.592675,312.906618,249.962077,312.884439,255.145321,"C",312.842215,265.013125,312.432988,265.558339,311.519201,269.030187,"C",311.432511,269.359558,311.650296,268.713417,311.571782,269.044378,"C",310.594041,273.165876,313.127222,275.505087,307.949216,273.018494,"C",305.562322,271.872255,305.956737,270.675807,303.824579,272.537713,"C",302.816086,273.418379,303.754129,274.30217,304.715144,275.795314,"C",305.29704,276.699415,308.167213,275.242258,275.63382,277.381914,"C",263.641324,278.170636,291.466178,282.471057,330.779159,271.08679,"C",357.243894,263.423123,374.692262,237.68186,372.07,240.87,"Z"]},{"t":1240,"v":["M",372.07,240.87,"C",366.235031,247.964141,362.966104,256.350523,363.377243,252.371678,"C",363.833269,247.958433,360.174438,246.823149,358.67667,254.108069,"C",357.458484,260.033143,353.380126,252.120517,351.181053,245.205748,"C",346.09431,229.210986,344.618739,224.481327,340.085448,212.817168,"C",336.417758,203.380201,335.067269,195.685294,332.139698,196.298324,"C",329.850687,196.77764,332.567313,204.400897,333.364868,208.914302,"C",334.193818,213.605371,334.458849,215.65785,334.309269,218.639117,"C",334.140119,222.010434,333.673919,223.905429,327.686169,224.741741,"C",327.632327,224.742723,327.585978,224.759036,327.532291,224.763234,"C",321.361729,225.245727,321.45826,222.819241,319.006525,218.922834,"C",313.402277,210.016313,313.608712,199.23312,310.525633,199.848608,"C",307.316332,200.489294,309.246407,210.806614,311.302322,225.696202,"C",313.247014,239.780275,313.641774,245.012345,315.172628,255.730899,"C",315.220783,256.068063,315.206786,256.147256,315.245875,256.485148,"C",316.864784,270.479146,316.844246,277.35021,313.133835,272.965265,"C",311.791635,271.37906,307.301278,271.53689,306.072274,274.08686,"C",304.952043,276.411144,306.022911,276.476131,306.983926,277.969275,"C",307.565822,278.873376,308.167213,275.242258,275.63382,277.381914,"C",263.641324,278.170636,291.435385,287.040394,330.748366,275.656127,"C",357.213101,267.99246,374.692262,237.68186,372.07,240.87,"Z"]},{"t":1370,"v":["M",372.07,240.87,"C",366.23,247.96,371.63,225.1,370.07,214.5,"C",368.54,204.03,365.94,208.1,362.94,220.89,"C",359.88,233.93,355.78,235.53,354.88,228.33,"C",352.42,208.63,348.84,193.59,337.33,175.55,"C",325.92,157.67,311.64,147.66,307.27,150.55,"C",304,152.72,311.83,158.71,318.69,170.44,"C",322.61,177.14,324.97,183.23,326.32,188.09,"C",327.67,192.9,325.03,197.93,320.34,199.65,"C",320.29,199.67,320.24,199.69,320.19,199.71,"C",315.88,201.32,311.07,199.58,308.64,195.67,"C",297.23,177.3,273.47,156.65,267.12,161.99,"C",264.61,164.09,272.57,169.43,279.63,179.93,"C",292.79,199.5,297.03,217.23,298.15,234.5,"C",298.17,234.84,298.18,235.19,298.17,235.53,"C",297.84,243.34,293.21,239.71,289.64,235.21,"C",285.89,230.48,277.26,222.47,275.18,224.39,"C",273.2,226.21,278.22,234.13,280.8,238.01,"C",284.15,243.04,308.22,277.95,273.97,275.21,"C",261.99,274.25,291.459159,282.44679,330.779159,271.08679,"C",357.239159,263.40679,374.69,237.68,372.07,240.87,"Z"]},{"t":1500,"v":["M",372.07,240.87,"C",366.23,247.96,371.63,225.1,370.07,214.5,"C",368.54,204.03,365.94,208.1,362.94,220.89,"C",359.88,233.93,355.78,235.53,354.88,228.33,"C",352.42,208.63,348.84,193.59,337.33,175.55,"C",325.92,157.67,311.64,147.66,307.27,150.55,"C",304,152.72,311.83,158.71,318.69,170.44,"C",322.61,177.14,324.97,183.23,326.32,188.09,"C",327.67,192.9,325.03,197.93,320.34,199.65,"C",320.29,199.67,320.24,199.69,320.19,199.71,"C",315.88,201.32,311.07,199.58,308.64,195.67,"C",297.23,177.3,273.47,156.65,267.12,161.99,"C",264.61,164.09,272.57,169.43,279.63,179.93,"C",292.79,199.5,297.03,217.23,298.15,234.5,"C",298.17,234.84,298.18,235.19,298.17,235.53,"C",297.84,243.34,293.21,239.71,289.64,235.21,"C",285.89,230.48,277.26,222.47,275.18,224.39,"C",273.2,226.21,278.22,234.13,280.8,238.01,"C",284.15,243.04,308.22,277.95,273.97,275.21,"C",261.99,274.25,291.459159,282.44679,330.779159,271.08679,"C",357.239159,263.40679,374.69,237.68,372.07,240.87,"Z"],"e":[0.445,0.05,0.55,0.95]},{"t":1600,"v":["M",372.07,240.87,"C",366.23,247.96,371.478296,234.422505,364.514639,217.013361,"C",358.966197,203.142255,357.505426,207.085663,358.238245,220.202336,"C",358.966196,233.231885,355.77955,235.530056,354.88,228.33,"C",352.418769,208.630154,348.84,193.59,337.33,175.55,"C",325.92,157.67,311.64,147.66,307.27,150.55,"C",304,152.72,311.83,158.71,318.69,170.44,"C",322.61,177.14,324.97,183.23,326.32,188.09,"C",327.67,192.9,325.03,197.93,320.34,199.65,"C",320.29,199.67,320.24,199.69,320.19,199.71,"C",315.88,201.32,311.07,199.58,308.64,195.67,"C",297.23,177.3,273.47,156.65,267.12,161.99,"C",264.61,164.09,272.57,169.43,279.63,179.93,"C",292.79,199.5,297.03,217.23,298.15,234.5,"C",298.17,234.84,298.18,235.19,298.17,235.53,"C",297.84,243.34,296.066223,238.699495,294.305501,233.231885,"C",292.568953,227.839344,287.851453,220.003786,285.769436,221.921599,"C",283.79135,223.743679,285.556034,228.110246,287.263247,237.286516,"C",289.062572,246.957889,308.22,277.95,273.97,275.21,"C",261.99,274.25,291.459159,282.44679,330.779159,271.08679,"C",357.239159,263.40679,374.69,237.68,372.07,240.87,"Z"],"e":[0.445,0.05,0.55,0.95]},{"t":1700,"v":["M",372.07,240.87,"C",366.23,247.96,371.63,225.1,370.07,214.5,"C",368.54,204.03,365.94,208.1,362.94,220.89,"C",359.88,233.93,355.78,235.53,354.88,228.33,"C",352.42,208.63,348.84,193.59,337.33,175.55,"C",325.92,157.67,311.64,147.66,307.27,150.55,"C",304,152.72,311.83,158.71,318.69,170.44,"C",322.61,177.14,324.97,183.23,326.32,188.09,"C",327.67,192.9,325.03,197.93,320.34,199.65,"C",320.29,199.67,320.24,199.69,320.19,199.71,"C",315.88,201.32,311.07,199.58,308.64,195.67,"C",297.23,177.3,273.47,156.65,267.12,161.99,"C",264.61,164.09,272.57,169.43,279.63,179.93,"C",292.79,199.5,297.03,217.23,298.15,234.5,"C",298.17,234.84,298.18,235.19,298.17,235.53,"C",297.84,243.34,293.21,239.71,289.64,235.21,"C",285.89,230.48,277.26,222.47,275.18,224.39,"C",273.2,226.21,278.22,234.13,280.8,238.01,"C",284.15,243.04,308.22,277.95,273.97,275.21,"C",261.99,274.25,291.459159,282.44679,330.779159,271.08679,"C",357.239159,263.40679,374.69,237.68,372.07,240.87,"Z"],"e":[0.445,0.05,0.55,0.95]},{"t":1810,"v":["M",372.07,240.87,"C",366.23,247.96,371.478296,234.422505,364.514639,217.013361,"C",358.966197,203.142255,357.505426,207.085663,358.238245,220.202336,"C",358.966196,233.231885,355.77955,235.530056,354.88,228.33,"C",352.418769,208.630154,348.84,193.59,337.33,175.55,"C",325.92,157.67,311.64,147.66,307.27,150.55,"C",304,152.72,311.83,158.71,318.69,170.44,"C",322.61,177.14,324.97,183.23,326.32,188.09,"C",327.67,192.9,325.03,197.93,320.34,199.65,"C",320.29,199.67,320.24,199.69,320.19,199.71,"C",315.88,201.32,311.07,199.58,308.64,195.67,"C",297.23,177.3,273.47,156.65,267.12,161.99,"C",264.61,164.09,272.57,169.43,279.63,179.93,"C",292.79,199.5,297.03,217.23,298.15,234.5,"C",298.17,234.84,298.18,235.19,298.17,235.53,"C",297.84,243.34,296.066223,238.699495,294.305501,233.231885,"C",292.568953,227.839344,287.851453,220.003786,285.769436,221.921599,"C",283.79135,223.743679,285.556034,228.110246,287.263247,237.286516,"C",289.062572,246.957889,308.22,277.95,273.97,275.21,"C",261.99,274.25,291.459159,282.44679,330.779159,271.08679,"C",357.239159,263.40679,374.69,237.68,372.07,240.87,"Z"],"e":[0.445,0.05,0.55,0.95]},{"t":1930,"v":["M",372.07,240.87,"C",366.23,247.96,371.63,225.1,370.07,214.5,"C",368.54,204.03,365.94,208.1,362.94,220.89,"C",359.88,233.93,355.78,235.53,354.88,228.33,"C",352.42,208.63,348.84,193.59,337.33,175.55,"C",325.92,157.67,311.64,147.66,307.27,150.55,"C",304,152.72,311.83,158.71,318.69,170.44,"C",322.61,177.14,324.97,183.23,326.32,188.09,"C",327.67,192.9,325.03,197.93,320.34,199.65,"C",320.29,199.67,320.24,199.69,320.19,199.71,"C",315.88,201.32,311.07,199.58,308.64,195.67,"C",297.23,177.3,273.47,156.65,267.12,161.99,"C",264.61,164.09,272.57,169.43,279.63,179.93,"C",292.79,199.5,297.03,217.23,298.15,234.5,"C",298.17,234.84,298.18,235.19,298.17,235.53,"C",297.84,243.34,293.21,239.71,289.64,235.21,"C",285.89,230.48,277.26,222.47,275.18,224.39,"C",273.2,226.21,278.22,234.13,280.8,238.01,"C",284.15,243.04,308.22,277.95,273.97,275.21,"C",261.99,274.25,291.459159,282.44679,330.779159,271.08679,"C",357.239159,263.40679,374.69,237.68,372.07,240.87,"Z"]}]},"e0JOsGPILRD92":{"transform":{"data":{"t":{"x":-329.659821,"y":-221.611336}},"keys":{"o":[{"t":1140,"v":{"x":335.194606,"y":258.186198,"type":"corner"},"e":[0.47,0,0.745,0.715]},{"t":1240,"v":{"x":332.704801,"y":236.239979,"type":"corner"},"e":[0.39,0.575,0.565,1]},{"t":1400,"v":{"x":329.659821,"y":221.611336,"type":"corner"}}],"r":[{"t":1140,"v":-4.440092,"e":[0.47,0,0.745,0.715]},{"t":1240,"v":-1.905653,"e":[0.39,0.575,0.565,1]},{"t":1400,"v":0}],"s":[{"t":1140,"v":{"x":0.717649,"y":0.439126},"e":[0.47,0,0.745,0.715]},{"t":1240,"v":{"x":0.875183,"y":0.54908},"e":[0.39,0.575,0.565,1]},{"t":1400,"v":{"x":1,"y":1}}]}},"opacity":[{"t":1160,"v":0},{"t":1190,"v":1}]},"e0JOsGPILRD93":{"d":[{"t":1320,"v":["M",322.50884,222.676119,"C",322.701302,225.608435,320.717593,228.559229,318.117333,228.418523,"C",315.635809,228.284242,314.118867,226.534866,313.91,223.89,"C",313.696838,221.190749,315.09,218.73,317.54,218.32,"C",319.99,217.92,322.332151,219.984116,322.50884,222.676119,"Z"],"e":[0.47,0,0.745,0.715]},{"t":1630,"v":["M",322.78,222.41,"C",323.23,225.08,321.22,222.97,318.64,222.81,"C",316.16,222.65,314.35,226.56,313.91,223.89,"C",313.46,221.22,315.09,218.73,317.54,218.32,"C",319.99,217.92,322.33,219.75,322.78,222.41,"Z"]}]},"e0JOsGPILRD94":{"d":[{"t":1320,"v":["M",337.084914,219.013717,"C",337.234593,221.638432,338.998915,222.782799,341.308286,222.544346,"C",343.704301,222.296947,345.325426,220.320174,345.035764,217.427237,"C",344.746102,214.5343,342.96,213.17,340.57,213.48,"C",338.19,213.8,336.931034,216.315343,337.084914,219.013717,"Z"],"e":[0.47,0,0.745,0.715]},{"t":1630,"v":["M",336.88,218.9,"C",337.23,221.58,338.82,219.16,341.16,218.27,"C",343.41,217.41,345.8,219.99,345.45,217.31,"C",345.1,214.63,342.96,213.17,340.57,213.48,"C",338.19,213.8,336.53,216.22,336.88,218.9,"Z"]}]},"e0JOsGPILRD95":{"d":[{"t":1320,"v":["M",326.084319,229.822813,"C",330.253832,226.956582,331.305349,226.639232,337.144116,228.193685,"C",338.806249,228.636194,335.521237,233.710074,331.17864,234.029017,"C",326.727168,234.355956,324.6062,230.83891,326.084319,229.822813,"Z"],"e":[0.47,0,0.745,0.715]},{"t":1630,"v":["M",324.39,227.42,"C",328.49,225.49,332.18,224.35,338.1,224.3,"C",339.82,224.29,336.1,228.59,331.94,229.54,"C",327.59,230.54,322.77,228.19,324.39,227.42,"Z"]}]}},"s":"MDCA1ZGQwNzdiOYWNhYzdiNmM5QYmVjNGMzNzcR4Zjg4OGE4NUDQ4NTgxUTc3YQjliZWM3YmFiMOEZjOWJlYzRHjMzc3OGY4NjXgxWTc3YmVjOGWJhYzdiNmM5GYmVjNGMzYzgR3NzhmODU4MTUc3RWJiYmVjMNWMxNzc4Zjg2NODE3N2I2YzFAjOWJhYzdjM2CI2YzliYTc3OTGZiYmI2YzFjROGJhODE3N2MX4YzViYWJhYjWk3NzhmODY4MFTc3SmJiYzVjUODc3OGY4NjgK1ODVkMg|"}],"options":"MDWAxZThlMzU4NVjg3NzQ4NTg3JMzU0ZDM1ODYG3Njg1ODI3ZlBk3ZjM1M2YzNRTg2NzY4NUs4HMjdmSzdmMzUS0ZDQ1NDg5MAS|"},'https://cdn.svgator.com/ply/','__SVGATOR_PLAYER__','2022-05-04',window,document,'script','http://www.w3.org/2000/svg','http://www.w3.org/1999/xlink')
]]></script>
</svg>
