<svg id="ekY4P9hlNGs1" xmlns="http://www.w3.org/2000/svg" xmlns:xlink="http://www.w3.org/1999/xlink" viewBox="0 0 700 400" shape-rendering="geometricPrecision" text-rendering="geometricPrecision" style="background-color:#fff"><defs><linearGradient id="ekY4P9hlNGs20-fill" x1="167.089" y1="234.9149" x2="167.089" y2="478.0302" spreadMethod="pad" gradientUnits="userSpaceOnUse" gradientTransform="translate(0 0)"><stop id="ekY4P9hlNGs20-fill-0" offset="0%" stop-color="#40d045"/><stop id="ekY4P9hlNGs20-fill-1" offset="100%" stop-color="#166bff"/></linearGradient><linearGradient id="ekY4P9hlNGs21-fill" x1="155.6261" y1="269.2562" x2="155.6261" y2="464.1241" spreadMethod="pad" gradientUnits="userSpaceOnUse" gradientTransform="translate(0 0)"><stop id="ekY4P9hlNGs21-fill-0" offset="0%" stop-color="#40d045"/><stop id="ekY4P9hlNGs21-fill-1" offset="99.72%" stop-color="#166bff"/></linearGradient><linearGradient id="ekY4P9hlNGs22-fill" x1="201.5438" y1="233.2235" x2="201.5438" y2="482.5554" spreadMethod="pad" gradientUnits="userSpaceOnUse" gradientTransform="translate(0 0)"><stop id="ekY4P9hlNGs22-fill-0" offset="0%" stop-color="#40d045"/><stop id="ekY4P9hlNGs22-fill-1" offset="99.72%" stop-color="#166bff"/></linearGradient><linearGradient id="ekY4P9hlNGs23-fill" x1="109.7747" y1="216.6863" x2="109.7747" y2="481.8524" spreadMethod="pad" gradientUnits="userSpaceOnUse" gradientTransform="translate(0 0)"><stop id="ekY4P9hlNGs23-fill-0" offset="0%" stop-color="#40d045"/><stop id="ekY4P9hlNGs23-fill-1" offset="99.72%" stop-color="#166bff"/></linearGradient><linearGradient id="ekY4P9hlNGs29-fill" x1="167.089" y1="234.9149" x2="167.089" y2="478.0302" spreadMethod="pad" gradientUnits="userSpaceOnUse" gradientTransform="translate(0 0)"><stop id="ekY4P9hlNGs29-fill-0" offset="0%" stop-color="#40d045"/><stop id="ekY4P9hlNGs29-fill-1" offset="100%" stop-color="#4cd247"/></linearGradient><linearGradient id="ekY4P9hlNGs31-stroke" x1="0.541905" y1="0.840214" x2="0.541905" y2="0.02306" spreadMethod="pad" gradientUnits="objectBoundingBox" gradientTransform="translate(0 0)"><stop id="ekY4P9hlNGs31-stroke-0" offset="0%" stop-color="#46d146"/><stop id="ekY4P9hlNGs31-stroke-1" offset="100%" stop-color="#46d146"/></linearGradient><linearGradient id="ekY4P9hlNGs33-fill" x1="167.089" y1="234.9149" x2="167.089" y2="478.0302" spreadMethod="pad" gradientUnits="userSpaceOnUse" gradientTransform="translate(0 0)"><stop id="ekY4P9hlNGs33-fill-0" offset="0%" stop-color="#40d045"/><stop id="ekY4P9hlNGs33-fill-1" offset="100%" stop-color="#fff76a"/></linearGradient></defs><g transform="translate(-54.439835-152.878128)"><g id="ekY4P9hlNGs3" transform="matrix(.493184 0 0 0.493184 108.09748 102.741768)" opacity="0"><polygon points="339.6,405.6 328.8,405.6 328.8,449.2 363.7,449.2 363.7,442.2 339.6,442.2" fill="#30ab88"/><path d="M390,438.1c-1.1,2-3.5,4.6-7.6,4.6-1.8,0-3.9-.6-3.9-4.8v-22.2h-10.7v22.3c0,8.1,4.8,11.8,12.3,11.8c8.1,0,9.6-4.5,10-5.9v5.4h10.6v-33.5h-10.7v22.3Z" fill="#30ab88"/><path d="M425.7,442.9c-5.7,0-8.3-4-8.3-10.2c0-6.1,2.6-10.4,8.3-10.5c3.4.1,5.9,2.6,6.4,6.5l10.4-1.5c-1.3-6.7-8.1-12-16.7-12-12.8,0-18.8,7.5-18.8,17.4s6,17.2,18.8,17.2c8.8,0,15-5,16.8-11.8l-10.4-1.4c-1,3.9-3.3,6.2-6.5,6.3Z" fill="#30ab88"/><polygon points="469.2,415.8 458.3,426.4 458.3,405.2 447.8,405.2 447.8,449.2 458.3,449.2 458.3,436.5 461.1,434 470,449.2 482,449.2 468.4,427.7 482.2,415.8" fill="#30ab88"/><path d="M503,437h-.8l-8.1-21.3h-11l14.3,31-1.8,3.9c-.6,1.4-1.7,2.8-4.2,2.8h-5.1v6.9h5.1c9.6,0,13.2-5.1,14.6-8.5h.1l16.3-36h-10.9L503,437Z" fill="#30ab88"/><path d="M547.2,415.3c-6.2,0-9.7,1.7-11.8,4.5v-4h-10.6v44.7h10.6v-14.7c1.9,2.7,5.1,4.2,10.3,4.2c8.9,0,15.5-6.6,15.5-17.2c0-10.4-6.6-17.5-14-17.5Zm-4.1,27.6c-5.5,0-7.7-4-7.7-10.2s2.2-10.5,7.7-10.5c5.3.1,7.6,4.2,7.6,10.2c0,6.3-2.3,10.5-7.6,10.5Z" fill="#30ab88"/><path d="M596.6,441.5v-16.2c0-6.2-5.3-9.9-15.1-9.9-9.3,0-14.8,4.3-15.9,10.3l10,1.1c.8-2.9,2.6-4.4,5.8-4.4s4.6.9,4.6,2.9c0,2.1-2,3.2-4.3,3.6-9.1,1.8-17.5,3.4-17.5,12c0,5.6,5.2,9.1,12.5,9.1c5.5,0,8.8-1.6,10.6-4.1h.7c1.3,2.6,4.1,4,7.3,4c2.1,0,3.8-.2,5.2-.5v-6.4c-.3.1-1.3.1-2,.1-.6,0-1.9-.7-1.9-1.6Zm-10.5-2.4c-.6,2.5-3.6,3.6-6.2,3.8-2.5,0-5-.8-5-3.2c0-3,2.8-4.3,6.4-4.8c1.9-.4,3.2-.8,4.1-1.5h.7v5.7Z" fill="#30ab88"/><path d="M610.6,402.7c-3.4,0-5.8,2.5-5.8,5.5c0,3.1,2.5,5.3,5.8,5.3s6.2-2.2,6.2-5.3c0-3-2.9-5.5-6.2-5.5Z" fill="#30ab88"/><rect width="10.5" height="33.5" rx="0" ry="0" transform="translate(605.3 415.8)" fill="#30ab88"/><path d="M644.3,415.3c-8.1,0-9.6,4.5-10,5.9h-.1v-5.4h-10.5v33.5h10.5v-22.3c1.1-2,3.6-4.8,7.8-4.8c1.8,0,3.9.6,4,4.8v22.2h10.6v-22.2c-.1-8.1-4.9-11.7-12.3-11.7Z" fill="#30ab88"/><path d="M684.6,422.6v-6.9h-7.1v-7.6h-10.6v7.6h-5.6v6.9h5.6v18.8c0,5.6,3.3,8.4,11.1,8.4c1.9,0,4.5-.4,6.7-.9v-6.9c-1.7.5-3.6.7-4.3.7-1.8,0-2.8-.8-2.8-2.2v-18h7Z" fill="#30ab88"/></g><g id="ekY4P9hlNGs15" transform="matrix(1.054274 0 0 1.054274 219.363327-10.643128)"><g id="ekY4P9hlNGs16" opacity="0"><path id="ekY4P9hlNGs17" d="M155.6,532.4v0c-6.3,0-11.5-5.1-11.5-11.5v0c0-6.3,5.1-11.5,11.5-11.5v0c6.3,0,11.5,5.1,11.5,11.5v0c0,6.4-5.1,11.5-11.5,11.5Z" transform="matrix(.794212 0 0 0.794212 32.020614-12.055026)" fill="#166bff"/><path id="ekY4P9hlNGs18" d="M109.8,516.9v0c-6.3,0-11.5-5.1-11.5-11.5v0c0-6.3,5.1-11.5,11.5-11.5v0c6.3,0,11.5,5.1,11.5,11.5v0c-.1,6.4-5.2,11.5-11.5,11.5Z" transform="matrix(.712666 0 0 0.712666 31.549274 37.96861)" fill="#166bff"/><path id="ekY4P9hlNGs19" d="M109.8,516.9v0c-6.3,0-11.5-5.1-11.5-11.5v0c0-6.3,5.1-11.5,11.5-11.5v0c6.3,0,11.5,5.1,11.5,11.5v0c-.1,6.4-5.2,11.5-11.5,11.5Z" transform="matrix(.712666 0 0 0.712666 123.636311 37.96861)" fill="#166bff"/><path id="ekY4P9hlNGs20" d="M270.7,290.8v0c0-28.6-23.2-51.8-51.8-51.8v0c-28.6,0-51.8,23.2-51.8,51.8c0-28.6-23.2-51.8-51.8-51.8v0c-28.6,0-51.8,23.2-51.8,51.8v0c0,28.6,23.2,51.8,51.8,51.8-28.6,0-51.8,23.2-51.8,51.8v0c0,28.6,23.2,51.8,51.8,51.8v0c28.6,0,51.8-23.2,51.8-51.8c0,28.6,23.2,51.8,51.8,51.8v0c28.6,0,51.8-23.2,51.8-51.8v0c0-28.6-23.2-51.8-51.8-51.8c28.6,0,51.8-23.2,51.8-51.8Z" opacity="0" fill="url(#ekY4P9hlNGs20-fill)"/><path id="ekY4P9hlNGs21" d="M155.6,405.2v0c-6.3,0-11.5-5.1-11.5-11.5v-7.1c0-6.3,5.1-11.5,11.5-11.5v0c6.3,0,11.5,5.1,11.5,11.5v7.1c0,6.4-5.1,11.5-11.5,11.5Z" fill="url(#ekY4P9hlNGs21-fill)"/><path id="ekY4P9hlNGs22" d="M201.5,435.75v0c-6.3,0-11.5-5.1-11.5-11.5v-7.55c0-6.3,5.1-11.5,11.5-11.5v0c6.3,0,11.5,5.1,11.5,11.5v7.65c0,6.3-5.1,11.4-11.5,11.4Z" fill="url(#ekY4P9hlNGs22-fill)"/><path id="ekY4P9hlNGs23" d="M109.8,435.75v0c-6.3,0-11.5-5.1-11.5-11.5v-60.55c0-6.3,5.1-11.5,11.5-11.5v0c6.3,0,11.5,5.1,11.5,11.5v60.55c-.1,6.3-5.2,11.5-11.5,11.5Z" fill="url(#ekY4P9hlNGs23-fill)"/></g><g id="ekY4P9hlNGs24" opacity="0"><path id="ekY4P9hlNGs25" d="M224.4,534.1v0c-6.3,0-11.5-5.1-11.5-11.5v-98.3c0-6.3,5.1-11.5,11.5-11.5v0c6.3,0,11.5,5.1,11.5,11.5v98.3c0,6.4-5.1,11.5-11.5,11.5Z" transform="translate(0 35.336908)" opacity="0" fill="#fff"/><path id="ekY4P9hlNGs26" d="M178.5,496.5v0c-6.3,0-11.5-5.1-11.5-11.5v-98.3c0-6.3,5.1-11.5,11.5-11.5v0c6.3,0,11.5,5.1,11.5,11.5v98.3c0,6.3-5.2,11.5-11.5,11.5Z" transform="translate(0 57.82737)" opacity="0" fill="#fff"/><path id="ekY4P9hlNGs27" d="M132.7,540.3v0c-6.3,0-11.5-5.1-11.5-11.5v-98.3c0-6.3,5.1-11.5,11.5-11.5v0c6.3,0,11.5,5.1,11.5,11.5v98.3c-.1,6.3-5.2,11.5-11.5,11.5Z" transform="translate(0 28.913685)" opacity="0" fill="#fff"/><path id="ekY4P9hlNGs28" d="M86.8,548.7v0c-6.3,0-11.5-5.1-11.5-11.5v-98.3c0-6.3,5.1-11.5,11.5-11.5v0c6.3,0,11.5,5.1,11.5,11.5v98.3c0,6.3-5.2,11.5-11.5,11.5Z" transform="translate(0 19.27579)" opacity="0" fill="#fff"/></g><path id="ekY4P9hlNGs29" d="M270.7,290.8v0c0-28.6-23.2-51.8-51.8-51.8v0c-28.6,0-51.8,23.2-51.8,51.8c0-28.6-23.2-51.8-51.8-51.8v0c-28.6,0-51.8,23.2-51.8,51.8v0c0,28.6,23.2,51.8,51.8,51.8-28.6,0-51.8,23.2-51.8,51.8v0c0,28.6,23.2,51.8,51.8,51.8v0c28.6,0,51.8-23.2,51.8-51.8c0,28.6,23.2,51.8,51.8,51.8v0c28.6,0,51.8-23.2,51.8-51.8v0c0-28.6-23.2-51.8-51.8-51.8c28.6,0,51.8-23.2,51.8-51.8Z" transform="matrix(0 1-1 0 509.699966 175.49997)" opacity="0" fill="url(#ekY4P9hlNGs29-fill)"/><g id="ekY4P9hlNGs30" transform="matrix(0 1-1 0 505.94235 178.323869)" clip-path="url(#ekY4P9hlNGs32)"><path id="ekY4P9hlNGs31" d="M144.2,219.626366C123.453246,226.740691,8.37807,291.04011,28.818231,313.9s165.538159-141.569825,190.281769-102.210525-213.148311,130.883093-196.140687,158.183093s234.450446-162.772566,256.215675-130.772568-263.790839,153.634651-240.152183,188.2s244.421332-161.534906,270.566648-131.268933-243.547521,157.616243-234.589453,177.418933s204.937766-111.750191,217.159241-87.115566-45.512218,45.512218-167.600023,103.612922" transform="matrix(-1 0 0-1 331.007822 687.640161)" fill="none" stroke="url(#ekY4P9hlNGs31-stroke)" stroke-width="30" stroke-linecap="round" stroke-linejoin="round" stroke-dashoffset="2296.77" stroke-dasharray="2296.77"/><clipPath id="ekY4P9hlNGs32"><path d="M270.7,290.8v0c0-28.6-23.2-51.8-51.8-51.8v0c-28.6,0-51.8,23.2-51.8,51.8c0-28.6-23.2-51.8-51.8-51.8v0c-28.6,0-51.8,23.2-51.8,51.8v0c0,28.6,23.2,51.8,51.8,51.8-28.6,0-51.8,23.2-51.8,51.8v0c0,28.6,23.2,51.8,51.8,51.8v0c28.6,0,51.8-23.2,51.8-51.8c0,28.6,23.2,51.8,51.8,51.8v0c28.6,0,51.8-23.2,51.8-51.8v0c0-28.6-23.2-51.8-51.8-51.8c28.6,0,51.8-23.2,51.8-51.8Z" transform="translate(-2.046667-3.406038)" fill="url(#ekY4P9hlNGs33-fill)"/></clipPath></g></g></g>
<script><![CDATA[
(function(s,i,u,o,c,w,d,t,n,x,e,p,a,b){(a=Array.from(d.querySelectorAll('svg#' + i.root)).filter(n=> !n.svgatorPlayer)[0]||{}).svgatorPlayer={ready:(function(a){b=[];return function(c){return c?(b.push(c),a.svgatorPlayer):b}})(a)};w[o]=w[o]||{};w[o][s]=w[o][s]||[];w[o][s].push(i);e=d.createElementNS(n,t);e.async=true;e.setAttributeNS(x,'href',[u,s,'.','j','s','?','v','=',c].join(''));e.setAttributeNS(null,'src',[u,s,'.','j','s','?','v','=',c].join(''));p=d.getElementsByTagName(t)[0];p.parentNode.insertBefore(e,p);})('91c80d77',{"root":"ekY4P9hlNGs1","version":"2022-05-04","animations":[{"elements":{"ekY4P9hlNGs3":{"transform":{"data":{"t":{"x":-506.75,"y":-431.600006}},"keys":{"o":[{"t":1500,"v":{"x":358.018472,"y":315.599985,"type":"corner"},"e":[0.42,0,0.58,1]},{"t":3100,"v":{"x":503.46956,"y":332.074685,"type":"corner"},"e":[0.445,0.05,0.55,0.95]},{"t":3600,"v":{"x":491.325685,"y":330.699194,"type":"corner"},"e":[0.68,-0.55,0.265,1.55]}],"s":[{"t":1500,"v":{"x":0.493184,"y":0.493184},"e":[0.42,0,0.58,1]},{"t":3100,"v":{"x":1.415471,"y":1.415471},"e":[0.445,0.05,0.55,0.95]},{"t":3600,"v":{"x":1.338468,"y":1.338468},"e":[0.68,-0.55,0.265,1.55]}]}},"opacity":[{"t":1700,"v":0},{"t":2300,"v":1}]},"ekY4P9hlNGs15":{"transform":{"data":{"t":{"x":-171.337494,"y":-417.200012}},"keys":{"o":[{"t":0,"v":{"x":399.999992,"y":429.199997,"type":"corner"}},{"t":1500,"v":{"x":399.999992,"y":429.199997,"type":"corner"},"e":[0.25,0.46,0.45,0.94]},{"t":2500,"v":{"x":162.845116,"y":380.512532,"type":"corner"}},{"t":4400,"v":{"x":162.845116,"y":380.512532,"type":"corner"}},{"t":5400,"v":{"x":162.845116,"y":380.512532,"type":"corner"}}],"s":[{"t":700,"v":{"x":1.054274,"y":1.054274},"e":[0.68,-0.55,0.265,1.55]},{"t":1200,"v":{"x":1.313524,"y":1.313524},"e":[0.68,-0.55,0.265,1.55]},{"t":1500,"v":{"x":1.313524,"y":1.313524}},{"t":3100,"v":{"x":0.605162,"y":0.605162},"e":[0.445,0.05,0.55,0.95]},{"t":3600,"v":{"x":0.664374,"y":0.664374}}]}}},"ekY4P9hlNGs16":{"opacity":[{"t":2500,"v":0,"e":[1,0]},{"t":2600,"v":1}]},"ekY4P9hlNGs17":{"transform":{"data":{"t":{"x":-155.600006,"y":-520.900024}},"keys":{"o":[{"t":3200,"v":{"x":155.600006,"y":401.650024,"type":"corner"},"e":[0.445,0.05,0.55,0.95]},{"t":3900,"v":{"x":155.600006,"y":590.900024,"type":"corner"},"e":[1,1]},{"t":4100,"v":{"x":155.600006,"y":401.650024,"type":"corner"},"e":[0.445,0.05,0.55,0.95]},{"t":4800,"v":{"x":155.600006,"y":520.900024,"type":"corner"}}],"s":[{"t":3500,"v":{"x":0.794212,"y":0.794212}},{"t":3900,"v":{"x":1,"y":1},"e":[1,1]},{"t":4400,"v":{"x":0.794212,"y":0.794212}},{"t":4800,"v":{"x":1,"y":1},"e":[0.445,0.05,0.55,0.95]}]}},"opacity":[{"t":3700,"v":1},{"t":3900,"v":0,"e":[1,0]},{"t":4100,"v":1}]},"ekY4P9hlNGs18":{"transform":{"data":{"t":{"x":-109.800003,"y":-505.400024}},"keys":{"o":[{"t":2700,"v":{"x":109.800003,"y":398.150024,"type":"corner"},"e":[0.445,0.05,0.55,0.95]},{"t":3400,"v":{"x":109.800003,"y":565.400024,"type":"corner"},"e":[1,0]},{"t":3600,"v":{"x":109.800003,"y":398.150024,"type":"corner"},"e":[0.445,0.05,0.55,0.95]},{"t":4300,"v":{"x":109.800003,"y":505.400024,"type":"corner"}}],"s":[{"t":3000,"v":{"x":0.712666,"y":0.712666}},{"t":3400,"v":{"x":1,"y":1},"e":[1,0]},{"t":3900,"v":{"x":0.712666,"y":0.712666}},{"t":4300,"v":{"x":1,"y":1},"e":[0.445,0.05,0.55,0.95]}]}},"opacity":[{"t":3200,"v":1},{"t":3400,"v":0,"e":[1,0]},{"t":4100,"v":1}]},"ekY4P9hlNGs19":{"transform":{"data":{"t":{"x":-109.800003,"y":-505.400024}},"keys":{"o":[{"t":3000,"v":{"x":201.88704,"y":398.150024,"type":"corner"},"e":[0.445,0.05,0.55,0.95]},{"t":3700,"v":{"x":201.88704,"y":566.791383,"type":"corner"},"e":[1,0]}],"s":[{"t":3300,"v":{"x":0.712666,"y":0.712666}},{"t":3700,"v":{"x":1,"y":1},"e":[1,0]}]}},"opacity":[{"t":3500,"v":1},{"t":3700,"v":0,"e":[1,0]}]},"ekY4P9hlNGs20":{"opacity":[{"t":2500,"v":0,"e":[1,0]},{"t":2600,"v":1,"e":[1,0]}]},"ekY4P9hlNGs21":{"d":[{"t":2800,"v":["M",155.6,405.2,"L",155.6,405.2,"C",149.3,405.2,144.1,400.1,144.1,393.7,"L",144.1,386.6,"C",144.1,380.3,149.2,375.1,155.6,375.1,"L",155.6,375.1,"C",161.9,375.1,167.1,380.2,167.1,386.6,"L",167.1,393.7,"C",167.1,400.1,162,405.2,155.6,405.2,"Z"],"e":[0.445,0.05,0.55,0.95]},{"t":3500,"v":["M",155.6,496.4,"L",155.6,496.4,"C",149.3,496.4,144.1,491.3,144.1,484.9,"L",144.1,386.6,"C",144.1,380.3,149.2,375.1,155.6,375.1,"L",155.6,375.1,"C",161.9,375.1,167.1,380.2,167.1,386.6,"L",167.1,484.9,"C",167.1,491.3,162,496.4,155.6,496.4,"Z"]},{"t":3900,"v":["M",155.6,448.2,"L",155.6,448.2,"C",149.3,448.2,144.1,443.1,144.1,436.7,"L",144.1,386.6,"C",144.1,380.3,149.2,375.1,155.6,375.1,"L",155.6,375.1,"C",161.9,375.1,167.1,380.2,167.1,386.6,"L",167.1,436.7,"C",167.1,443.1,162,448.2,155.6,448.2,"Z"],"e":[0.445,0.05,0.55,0.95]},{"t":4600,"v":["M",155.6,491.884472,"L",155.6,491.884472,"C",149.3,491.884472,144.1,486.784472,144.1,480.384472,"L",144.1,386.6,"C",144.1,380.3,149.2,375.1,155.6,375.1,"L",155.6,375.1,"C",161.9,375.1,167.1,380.2,167.1,386.6,"L",167.1,480.384472,"C",167.1,486.784472,162,491.884472,155.6,491.884472,"Z"]}]},"ekY4P9hlNGs22":{"d":[{"t":3000,"v":["M",201.5,435.75,"L",201.5,435.75,"C",195.2,435.75,190,430.65,190,424.25,"L",190,416.7,"C",190,410.4,195.1,405.2,201.5,405.2,"L",201.5,405.2,"C",207.8,405.2,213,410.3,213,416.7,"L",213,424.35,"C",213,430.65,207.9,435.75,201.5,435.75,"Z"],"e":[0.445,0.05,0.55,0.95]},{"t":3500,"v":["M",201.5,480.456875,"L",201.5,480.456875,"C",195.2,480.456875,190,475.356875,190,468.956875,"L",190,416.7,"C",190,410.4,195.1,405.2,201.5,405.2,"L",201.5,405.2,"C",207.8,405.2,213,410.3,213,416.7,"L",213,469.056875,"C",213,475.356875,207.9,480.456875,201.5,480.456875,"Z"]},{"t":3900,"v":["M",201.5,453.75,"L",201.5,453.75,"C",195.2,453.75,190,448.65,190,442.25,"L",190,416.7,"C",190,410.4,195.1,405.2,201.5,405.2,"L",201.5,405.2,"C",207.8,405.2,213,410.3,213,416.7,"L",213,442.35,"C",213,448.65,207.9,453.75,201.5,453.75,"Z"],"e":[0.445,0.05,0.55,0.95]},{"t":4700,"v":["M",201.5,548.739544,"L",201.5,548.739544,"C",195.2,548.739544,190,543.639544,190,537.239544,"L",190,416.7,"C",190,410.4,195.1,405.2,201.5,405.2,"L",201.5,405.2,"C",207.8,405.2,213,410.3,213,416.7,"L",213,537.339544,"C",213,543.639544,207.9,548.739544,201.5,548.739544,"Z"]}]},"ekY4P9hlNGs23":{"d":[{"t":2500,"v":["M",109.8,435.75,"L",109.8,435.75,"C",103.5,435.75,98.3,430.65,98.3,424.25,"L",98.3,363.7,"C",98.3,357.4,103.4,352.2,109.8,352.2,"L",109.8,352.2,"C",116.1,352.2,121.3,357.3,121.3,363.7,"L",121.3,424.25,"C",121.2,430.55,116.1,435.75,109.8,435.75,"Z"],"e":[0.445,0.05,0.55,0.95]},{"t":3200,"v":["M",109.8,473.5,"L",109.8,473.5,"C",103.5,473.5,98.3,468.4,98.3,462,"L",98.3,363.7,"C",98.3,357.4,103.4,352.2,109.8,352.2,"L",109.8,352.2,"C",116.1,352.2,121.3,357.3,121.3,363.7,"L",121.3,462,"C",121.2,468.3,116.1,473.5,109.8,473.5,"Z"]},{"t":3500,"v":["M",109.8,455.75,"L",109.8,455.75,"C",103.5,455.75,98.3,450.65,98.3,444.25,"L",98.3,363.7,"C",98.3,357.4,103.4,352.2,109.8,352.2,"L",109.8,352.2,"C",116.1,352.2,121.3,357.3,121.3,363.7,"L",121.3,444.25,"C",121.2,450.55,116.1,455.75,109.8,455.75,"Z"],"e":[0.445,0.05,0.55,0.95]},{"t":4200,"v":["M",109.8,473.5,"L",109.8,473.5,"C",103.5,473.5,98.3,468.4,98.3,462,"L",98.3,363.7,"C",98.3,357.4,103.4,352.2,109.8,352.2,"L",109.8,352.2,"C",116.1,352.2,121.3,357.3,121.3,363.7,"L",121.3,462,"C",121.2,468.3,116.1,473.5,109.8,473.5,"Z"]}]},"ekY4P9hlNGs24":{"opacity":[{"t":2300,"v":0,"e":[1,0]},{"t":2400,"v":1}]},"ekY4P9hlNGs25":{"transform":{"data":{"t":{"x":-224.399994,"y":-473.449982}},"keys":{"o":[{"t":2400,"v":{"x":224.399994,"y":508.78689,"type":"corner"}},{"t":2700,"v":{"x":224.399994,"y":473.449982,"type":"corner"}}]}},"opacity":[{"t":2300,"v":0},{"t":2600,"v":1}]},"ekY4P9hlNGs26":{"transform":{"data":{"t":{"x":-178.5,"y":-435.850006}},"keys":{"o":[{"t":2400,"v":{"x":178.5,"y":493.677376,"type":"corner"}},{"t":2800,"v":{"x":178.5,"y":435.850006,"type":"corner"}}]}},"opacity":[{"t":2300,"v":0},{"t":2600,"v":1}]},"ekY4P9hlNGs27":{"transform":{"data":{"t":{"x":-132.699997,"y":-479.649994}},"keys":{"o":[{"t":2400,"v":{"x":132.699997,"y":508.563679,"type":"corner"}},{"t":2800,"v":{"x":132.699997,"y":479.649994,"type":"corner"}}]}},"opacity":[{"t":2300,"v":0},{"t":2600,"v":1}]},"ekY4P9hlNGs28":{"transform":{"data":{"t":{"x":-86.800003,"y":-488.050018}},"keys":{"o":[{"t":2400,"v":{"x":86.800003,"y":507.325808,"type":"corner"}},{"t":2700,"v":{"x":86.800003,"y":488.050018,"type":"corner"}}]}},"opacity":[{"t":2300,"v":0},{"t":2600,"v":1}]},"ekY4P9hlNGs29":{"transform":{"data":{"o":{"x":167.099998,"y":342.599968,"type":"corner"},"t":{"x":-167.099998,"y":-342.599968}},"keys":{"r":[{"t":1500,"v":90,"e":[0.39,0.575,0.565,1]},{"t":2500,"v":0}]}},"opacity":[{"t":1700,"v":0,"e":[1,0]},{"t":1800,"v":1},{"t":2500,"v":1,"e":[1,0]},{"t":2600,"v":0}],"fill":[{"t":1400,"v":{"t":"g","s":[{"c":{"r":64,"g":208,"b":69,"a":1},"o":0},{"c":{"r":76,"g":210,"b":71,"a":1},"o":1}],"r":"ekY4P9hlNGs29-fill","gt":[1,0,0,1,0,0],"f":{"x":167.089,"y":234.9149},"to":{"x":167.089,"y":478.0302}}},{"t":2500,"v":{"t":"g","s":[{"c":{"r":64,"g":208,"b":69,"a":1},"o":0},{"c":{"r":22,"g":107,"b":255,"a":1},"o":1}],"r":"ekY4P9hlNGs29-fill","gt":[1,0,0,1,0,0],"f":{"x":167.089,"y":234.9149},"to":{"x":167.089,"y":478.0302}}}]},"ekY4P9hlNGs30":{"transform":{"data":{"o":{"x":166.063581,"y":342.599998,"type":"corner"},"t":{"x":-164.276129,"y":-339.878769}},"keys":{"r":[{"t":1500,"v":90,"e":[0.39,0.575,0.565,1]},{"t":2500,"v":0}]}}},"ekY4P9hlNGs31":{"opacity":[{"t":2100,"v":1,"e":[1,0]},{"t":2200,"v":0}],"stroke":[{"t":1400,"v":{"t":"g","s":[{"c":{"r":70,"g":209,"b":70,"a":1},"o":0},{"c":{"r":70,"g":209,"b":70,"a":1},"o":1}],"r":"ekY4P9hlNGs31-stroke","gt":[1,0,0,1,0,0],"f":{"x":0.541905,"y":0.840214},"to":{"x":0.541905,"y":0.02306}}},{"t":2500,"v":{"t":"g","s":[{"c":{"r":70,"g":209,"b":70,"a":1},"o":0},{"c":{"r":22,"g":107,"b":255,"a":1},"o":1}],"r":"ekY4P9hlNGs31-stroke","gt":[1,0,0,1,0,0],"f":{"x":0.541905,"y":0.840214},"to":{"x":0.541905,"y":0.02306}}}],"stroke-width":[{"t":800,"v":30},{"t":1800,"v":40}],"stroke-dasharray":[{"t":0,"v":[2296.77]},{"t":1000,"v":[2296.77,0]}]}},"s":"MDRA1ZDkxMzhXNQ2FUOGI4ODc3TOGE3Zjg1ODRWYMzg1MDRjQzGQ2NDZBNDY0MQjM4N2E3Zjg4XN2I3OThhN2YB4NTg0Mzg1MDHQ3NDIzODdmOOGFYN2I4ODc3FOGE3Zjg1ODQU4OTM4NTA0NjAQyMzhQN2NKNY2Y4MkM4MjM4JNTA0NzQyMzgF3NzgyOGE3YjSg4ODQ3NzhhNJ2IzODUwN2M3LNzgyODk3YjQSyMzg4OUE4NjBdiN2I3YUgzORDUwNDc0MjM4GN2M4Njg5MzhUENTA0NzQ2NDEY5Mw|"}],"options":"MDJAxMDgyMjk3YJTdiNjg3OTdiRMjk0MTI5NzMH3NjY4NmIyOTMg0"},'https://cdn.svgator.com/ply/','__SVGATOR_PLAYER__','2022-05-04',window,document,'script','http://www.w3.org/2000/svg','http://www.w3.org/1999/xlink')
]]></script>
</svg>
