<svg id="e4HvnAOkhV01" xmlns="http://www.w3.org/2000/svg" xmlns:xlink="http://www.w3.org/1999/xlink" viewBox="0 0 700 550" shape-rendering="geometricPrecision" text-rendering="geometricPrecision" project-id="5c069b47a5b047c69bd154ec374cebc7" export-id="e3e05e0aeeb34d5e838e8b8f7433012d" cached="false" style="background-color:#f4eddb"><g transform="matrix(.729355 0 0 0.729355-14.67701-43.326665)"><g id="e4HvnAOkhV03" transform="translate(-.001357 20.445696)" opacity="0"><path d="M300,755.622v-60.626h10.243v19.209l-1.371-.081c.215-4.431,1.129-8.159,2.742-11.185c1.613-3.08,3.791-5.377,6.533-6.89c2.742-1.567,5.834-2.35,9.275-2.35c3.065,0,5.834.567,8.308,1.702c2.527,1.135,4.678,2.729,6.452,4.782c1.828,1.999,3.199,4.377,4.114,7.132.967,2.702,1.451,5.674,1.451,8.916v1.864c0,3.188-.457,6.187-1.371,8.997-.914,2.756-2.258,5.16-4.032,7.214-1.721,2.053-3.845,3.674-6.372,4.863-2.474,1.134-5.323,1.702-8.55,1.702-3.333,0-6.344-.676-9.033-2.027-2.635-1.404-4.758-3.512-6.372-6.322-1.613-2.863-2.5-6.484-2.661-10.86l3.549,4.863v29.097h-12.905Zm23.793-25.612c2.205,0,4.113-.54,5.726-1.621c1.667-1.081,2.958-2.594,3.872-4.539s1.371-4.188,1.371-6.727c0-2.54-.457-4.755-1.371-6.647-.914-1.891-2.178-3.35-3.791-4.376-1.613-1.081-3.549-1.621-5.807-1.621-1.936,0-3.764.459-5.484,1.378-1.721.918-3.119,2.242-4.194,3.971-1.022,1.675-1.533,3.728-1.533,6.16v2.999c0,2.323.538,4.323,1.613,5.998c1.129,1.621,2.554,2.863,4.275,3.728c1.72.865,3.495,1.297,5.323,1.297Z" fill="#187770"/><path d="M356.71,739.412v-44.416h10.243v19.047h-.242c0-6.268,1.318-11.104,3.952-14.508c2.689-3.405,6.56-5.107,11.614-5.107h1.694v11.185h-3.226c-3.549,0-6.291.973-8.227,2.918-1.935,1.891-2.903,4.647-2.903,8.267v22.614h-12.905Z" fill="#187770"/><path d="M411.956,740.952c-3.872,0-7.313-.595-10.324-1.783-3.011-1.243-5.565-2.918-7.662-5.026-2.043-2.107-3.603-4.511-4.678-7.213-1.076-2.756-1.613-5.647-1.613-8.673v-1.864c0-3.08.537-5.998,1.613-8.753c1.129-2.81,2.742-5.269,4.839-7.376c2.151-2.107,4.732-3.755,7.743-4.944c3.011-1.243,6.372-1.864,10.082-1.864c3.817,0,7.205.621,10.162,1.864c3.011,1.189,5.565,2.837,7.662,4.944s3.71,4.566,4.84,7.376c1.129,2.755,1.693,5.673,1.693,8.753v1.864c0,3.026-.537,5.917-1.613,8.673-1.075,2.702-2.661,5.106-4.758,7.213-2.044,2.108-4.571,3.783-7.582,5.026-3.011,1.188-6.479,1.783-10.404,1.783Zm0-10.942c2.527,0,4.624-.54,6.291-1.621s2.93-2.594,3.791-4.539c.914-1.945,1.371-4.107,1.371-6.484c0-2.54-.457-4.755-1.371-6.646-.915-1.946-2.232-3.486-3.953-4.62-1.666-1.135-3.71-1.702-6.129-1.702-2.366,0-4.409.567-6.13,1.702-1.721,1.134-3.038,2.674-3.952,4.62-.86,1.891-1.291,4.106-1.291,6.646c0,2.377.431,4.539,1.291,6.484s2.151,3.458,3.871,4.539c1.721,1.081,3.791,1.621,6.211,1.621Z" fill="#187770"/><path d="M445.32,755.622v-60.626h10.243v19.209l-1.371-.081c.215-4.431,1.129-8.159,2.742-11.185c1.613-3.08,3.791-5.377,6.533-6.89c2.742-1.567,5.834-2.35,9.275-2.35c3.065,0,5.834.567,8.307,1.702c2.528,1.135,4.678,2.729,6.453,4.782c1.828,1.999,3.199,4.377,4.113,7.132.968,2.702,1.452,5.674,1.452,8.916v1.864c0,3.188-.457,6.187-1.371,8.997-.914,2.756-2.259,5.16-4.033,7.214-1.721,2.053-3.844,3.674-6.372,4.863-2.473,1.134-5.323,1.702-8.549,1.702-3.334,0-6.345-.676-9.033-2.027-2.635-1.404-4.759-3.512-6.372-6.322-1.613-2.863-2.5-6.484-2.662-10.86l3.549,4.863v29.097h-12.904Zm23.793-25.612c2.204,0,4.113-.54,5.726-1.621c1.667-1.081,2.957-2.594,3.871-4.539s1.372-4.188,1.372-6.727c0-2.54-.458-4.755-1.372-6.647-.914-1.891-2.177-3.35-3.79-4.376-1.613-1.081-3.549-1.621-5.807-1.621-1.936,0-3.764.459-5.485,1.378-1.721.918-3.119,2.242-4.194,3.971-1.022,1.675-1.532,3.728-1.532,6.16v2.999c0,2.323.537,4.323,1.613,5.998c1.129,1.621,2.554,2.863,4.274,3.728c1.721.865,3.495,1.297,5.324,1.297Z" fill="#187770"/><path d="M502.03,739.412v-44.416h10.243v19.047h-.242c0-6.268,1.317-11.104,3.952-14.508c2.688-3.405,6.56-5.107,11.614-5.107h1.694v11.185h-3.226c-3.549,0-6.291.973-8.227,2.918-1.936,1.891-2.904,4.647-2.904,8.267v22.614h-12.904Z" fill="#187770"/><path d="M557.084,739.979c-4.463,0-8.066-.54-10.808-1.621-2.742-1.135-4.759-2.999-6.049-5.592-1.237-2.648-1.855-6.214-1.855-10.699v-39.067h12.017v39.553c0,2.107.538,3.728,1.613,4.863c1.13,1.081,2.716,1.621,4.759,1.621h6.533v10.942h-6.21Zm-25.406-35.5v-9.483h31.616v9.483h-31.616Z" fill="#187770"/><path d="M571.488,757v-11.023h9.195c1.398,0,2.581-.189,3.548-.567.968-.325,1.748-.892,2.339-1.702.592-.811,1.076-1.919,1.452-3.324l10.889-45.388h12.259l-12.34,47.982c-.86,3.458-2.07,6.214-3.63,8.267-1.505,2.054-3.548,3.513-6.129,4.377-2.527.919-5.754,1.378-9.679,1.378h-7.904Zm13.873-18.561v-10.131h9.356v10.131h-9.356Zm-5.324,0l-13.55-43.443h12.986l12.824,43.443h-12.26Z" fill="#187770"/><path d="M613.04,739.412v-14.508h14.195v14.508h-14.195Z" fill="#187770"/><path d="M663.806,739.412v-13.131h-2.177v-14.265c0-2.269-.538-3.971-1.613-5.106-1.076-1.135-2.796-1.702-5.162-1.702-1.183,0-2.742.027-4.678.081s-3.925.135-5.969.243c-2.043.108-3.898.216-5.565.325v-10.942c1.237-.109,2.689-.217,4.356-.325c1.666-.108,3.387-.189,5.161-.243c1.775-.054,3.442-.081,5.001-.081c4.517,0,8.307.649,11.372,1.945c3.119,1.297,5.485,3.269,7.098,5.917c1.613,2.594,2.419,5.944,2.419,10.051v27.233h-10.243Zm-14.114,1.135c-3.173,0-5.969-.568-8.388-1.703-2.366-1.134-4.221-2.755-5.565-4.863-1.345-2.161-2.017-4.728-2.017-7.7c0-3.242.834-5.889,2.501-7.943c1.666-2.107,4.005-3.647,7.017-4.619c3.011-1.027,6.479-1.54,10.404-1.54h9.436v7.213h-9.517c-2.258,0-4.006.567-5.242,1.702-1.183,1.081-1.775,2.567-1.775,4.458c0,1.783.592,3.242,1.775,4.377c1.236,1.08,2.984,1.621,5.242,1.621c1.452,0,2.743-.243,3.872-.73c1.183-.54,2.15-1.432,2.903-2.674.753-1.243,1.183-2.972,1.291-5.188l3.065,3.242c-.269,3.08-1.022,5.674-2.259,7.781-1.183,2.108-2.85,3.729-5,4.863-2.097,1.135-4.678,1.703-7.743,1.703Z" fill="#187770"/><path d="M687.095,739.412v-44.416h12.905v44.416h-12.905Zm-5.887-34.852v-9.564h18.792v9.564h-18.792Z" fill="#187770"/></g><path id="e4HvnAOkhV014" d="M600,503L500,553v0l100-50v0Z" fill="#86b2a5"/><path id="e4HvnAOkhV015" d="M400,503l100,50v0L400,503v0Z" fill="#187770"/><path id="e4HvnAOkhV016" d="M500,243l100,50-100,50-100-50l100-50Z" transform="translate(0 210)" opacity="0" fill="#f4eddb"/><path id="e4HvnAOkhV017" d="M300,553l100,50v0L300,553v0Z" fill="#187770"/><path id="e4HvnAOkhV018" d="M498,552l102,51v0L500,553l-2-1Z" fill="#187770"/><path id="e4HvnAOkhV019" d="M400,393l100,50-100,50-100-50l100-50Z" transform="translate(0 110)" opacity="0" fill="#f4eddb"/><path id="e4HvnAOkhV020" d="M700,553L600,603v0l100-50v0Z" fill="#86b2a5"/><path id="e4HvnAOkhV021" d="M600,343l100,50-100,50-100-50l100-50Z" transform="translate(0 160)" opacity="0" fill="#f4eddb"/><path id="e4HvnAOkhV022" d="M500,553L400,603v0l100-50v0Z" fill="#86b2a5"/><path id="e4HvnAOkhV023" d="M602,602L500,653v0l102-51v0Z" fill="#86b2a5"/><path id="e4HvnAOkhV024" d="M398,602l102,51v0L398,602v0Z" fill="#187770"/><path id="e4HvnAOkhV025" d="M500,493l100,50-100,50-100-50l100-50Z" transform="translate(0 60)" opacity="0" fill="#f4eddb"/><g id="e4HvnAOkhV027" transform="matrix(.8 0 0 0.8 97.357532 9.39286)" opacity="0"><path d="M467.333,97.8812c8.64,8.6403,20.085,13.3959,32.241,13.3959c12.155,0,23.604-4.7556,32.24-13.3959c17.778-17.7776,17.778-46.7032,0-64.4853C523.178,24.76014,511.725,20,499.574,20c-12.152,0-23.605,4.76014-32.241,13.4004-17.777,17.7731-17.777,46.7032,0,64.4808v0ZM500.982,29.192c7.615.2741,14.948,2.9524,20.947,7.6509L499.574,59.1937l-6.657-6.6569c5.293-6.7436,8.17-15.0829,8.065-23.3448v0ZM486.397,46.0166l-9.174-9.1737c4.307-3.3758,9.323-5.73,14.672-6.8849-.068,5.6356-2.029,11.2939-5.498,16.0586Zm-6.493,6.4016c-4.645,3.1731-10.147,4.8544-15.772,4.8194c1.185-5.0726,3.453-9.829,6.648-13.943l9.124,9.1236ZM463.148,66.3065c.351.0091.702.0639,1.053.0639c8.023.0256,15.834-2.5786,22.237-7.4138l6.688,6.6842L470.78,87.9871c-4.822-6.2111-7.5-13.8184-7.632-21.6806v0Zm56.054,12.5159c4.751-3.4561,10.396-5.4167,15.995-5.4988-1.141,5.3413-3.474,10.3556-6.825,14.668l-9.17-9.1692Zm2.722,15.6164c-4.111,3.2139-8.869,5.5003-13.947,6.7025-.052-5.6458,1.631-11.1714,4.819-15.8307l9.128,9.1282v0Zm-22.998,7.6873c-7.881-.1253-15.504-2.8251-21.708-7.6873L499.574,72.088l6.67,6.6706c-5.029,6.5839-7.564,14.8914-7.318,23.3675Zm37.042-37.8896c-8.239-.0821-16.565,2.7813-23.29,8.0612l-6.657-6.6569l22.346-22.3462c4.664,6.0124,7.323,13.3375,7.601,20.9419v0Z" transform="translate(3.729227-18.674254)" fill="#187770"/></g><g mask="url(#e4HvnAOkhV034)"><g id="e4HvnAOkhV031" transform="matrix(.8 0 0 0.8 97.357532 9.39286)" opacity="0"><path d="M467.333,97.8812c8.64,8.6403,20.085,13.3959,32.241,13.3959c12.155,0,23.604-4.7556,32.24-13.3959c17.778-17.7776,17.778-46.7032,0-64.4853C523.178,24.76014,511.725,20,499.574,20c-12.152,0-23.605,4.76014-32.241,13.4004-17.777,17.7731-17.777,46.7032,0,64.4808v0ZM500.982,29.192c7.615.2741,14.948,2.9524,20.947,7.6509L499.574,59.1937l-6.657-6.6569c5.293-6.7436,8.17-15.0829,8.065-23.3448v0ZM486.397,46.0166l-9.174-9.1737c4.307-3.3758,9.323-5.73,14.672-6.8849-.068,5.6356-2.029,11.2939-5.498,16.0586Zm-6.493,6.4016c-4.645,3.1731-10.147,4.8544-15.772,4.8194c1.185-5.0726,3.453-9.829,6.648-13.943l9.124,9.1236ZM463.148,66.3065c.351.0091.702.0639,1.053.0639c8.023.0256,15.834-2.5786,22.237-7.4138l6.688,6.6842L470.78,87.9871c-4.822-6.2111-7.5-13.8184-7.632-21.6806v0Zm56.054,12.5159c4.751-3.4561,10.396-5.4167,15.995-5.4988-1.141,5.3413-3.474,10.3556-6.825,14.668l-9.17-9.1692Zm2.722,15.6164c-4.111,3.2139-8.869,5.5003-13.947,6.7025-.052-5.6458,1.631-11.1714,4.819-15.8307l9.128,9.1282v0Zm-22.998,7.6873c-7.881-.1253-15.504-2.8251-21.708-7.6873L499.574,72.088l6.67,6.6706c-5.029,6.5839-7.564,14.8914-7.318,23.3675Zm37.042-37.8896c-8.239-.0821-16.565,2.7813-23.29,8.0612l-6.657-6.6569l22.346-22.3462c4.664,6.0124,7.323,13.3375,7.601,20.9419v0Z" transform="translate(3.729227-18.674254)" fill="#f4eddb"/></g><mask id="e4HvnAOkhV034" mask-type="alpha" x="-150%" y="-150%" height="400%" width="400%"><path d="M500,393l100,50v100L500,493v-100Z" transform="translate(0 0.511554)" fill="#187770"/></mask></g><g mask="url(#e4HvnAOkhV040)"><g id="e4HvnAOkhV037" transform="matrix(.8 0 0 0.8 97.357532 9.39286)" opacity="0"><path d="M467.333,97.8812c8.64,8.6403,20.085,13.3959,32.241,13.3959c12.155,0,23.604-4.7556,32.24-13.3959c17.778-17.7776,17.778-46.7032,0-64.4853C523.178,24.76014,511.725,20,499.574,20c-12.152,0-23.605,4.76014-32.241,13.4004-17.777,17.7731-17.777,46.7032,0,64.4808v0ZM500.982,29.192c7.615.2741,14.948,2.9524,20.947,7.6509L499.574,59.1937l-6.657-6.6569c5.293-6.7436,8.17-15.0829,8.065-23.3448v0ZM486.397,46.0166l-9.174-9.1737c4.307-3.3758,9.323-5.73,14.672-6.8849-.068,5.6356-2.029,11.2939-5.498,16.0586Zm-6.493,6.4016c-4.645,3.1731-10.147,4.8544-15.772,4.8194c1.185-5.0726,3.453-9.829,6.648-13.943l9.124,9.1236ZM463.148,66.3065c.351.0091.702.0639,1.053.0639c8.023.0256,15.834-2.5786,22.237-7.4138l6.688,6.6842L470.78,87.9871c-4.822-6.2111-7.5-13.8184-7.632-21.6806v0Zm56.054,12.5159c4.751-3.4561,10.396-5.4167,15.995-5.4988-1.141,5.3413-3.474,10.3556-6.825,14.668l-9.17-9.1692Zm2.722,15.6164c-4.111,3.2139-8.869,5.5003-13.947,6.7025-.052-5.6458,1.631-11.1714,4.819-15.8307l9.128,9.1282v0Zm-22.998,7.6873c-7.881-.1253-15.504-2.8251-21.708-7.6873L499.574,72.088l6.67,6.6706c-5.029,6.5839-7.564,14.8914-7.318,23.3675Zm37.042-37.8896c-8.239-.0821-16.565,2.7813-23.29,8.0612l-6.657-6.6569l22.346-22.3462c4.664,6.0124,7.323,13.3375,7.601,20.9419v0Z" transform="translate(3.729227-18.674254)" fill="#f4eddb"/></g><mask id="e4HvnAOkhV040" mask-type="alpha" x="-150%" y="-150%" height="400%" width="400%"><path d="M400,293l100,50v100L400,393v-100Z" transform="translate(-.048764 0)" fill="#187770"/></mask></g></g>
<script><![CDATA[
(function(s,i,u,o,c,w,d,t,n,x,e,p,a,b){(a=Array.from(d.querySelectorAll('svg#' + i.root)).filter(n=> !n.svgatorPlayer)[0]||{}).svgatorPlayer={ready:(function(a){b=[];return function(c){return c?(b.push(c),a.svgatorPlayer):b}})(a)};w[o]=w[o]||{};w[o][s]=w[o][s]||[];w[o][s].push(i);e=d.createElementNS(n,t);e.async=true;e.setAttributeNS(x,'href',[u,s,'.','j','s','?','v','=',c].join(''));e.setAttributeNS(null,'src',[u,s,'.','j','s','?','v','=',c].join(''));p=d.getElementsByTagName(t)[0];p.parentNode.insertBefore(e,p);})('91c80d77',{"root":"e4HvnAOkhV01","version":"2025-04-07","animations":[{"elements":{"e4HvnAOkhV03":{"transform":{"data":{"t":{"x":-500.001357,"y":-717.794354}},"keys":{"o":[{"t":2000,"v":{"x":500,"y":738.24005,"type":"corner"},"e":[0,0,0,1.01]},{"t":2600,"v":{"x":500,"y":718.24005,"type":"corner"}}],"r":[{"t":4300,"v":0,"e":[0.02,0.515,0.47,0.995]},{"t":4470,"v":2.315389,"e":[0.515,0.005,0.99,0.49]},{"t":4620,"v":0.12768}]}},"opacity":[{"t":2000,"v":0},{"t":2300,"v":1}]},"e4HvnAOkhV014":{"d":[{"t":100,"v":["M",600,503,"L",500,553,"L",500,553,"L",600,503,"L",600,503,"Z"],"e":[0,0,0.155,1.005]},{"t":500,"v":["M",600,293,"L",500,343,"L",500,553,"L",600,503,"L",600,293,"Z"]}]},"e4HvnAOkhV015":{"d":[{"t":100,"v":["M",400,503,"L",500,553,"L",500,553,"L",400,503,"L",400,503,"Z"],"e":[0,0,0.155,1.005]},{"t":500,"v":["M",400,293,"L",500,343,"L",500,553,"L",400,503,"L",400,293,"Z"]}]},"e4HvnAOkhV016":{"transform":{"data":{"t":{"x":-500,"y":-293}},"keys":{"o":[{"t":100,"v":{"x":500,"y":503,"type":"corner"},"e":[0,0,0.155,1.005]},{"t":500,"v":{"x":500,"y":293,"type":"corner"}}]}},"opacity":[{"t":0,"v":0},{"t":100,"v":1}]},"e4HvnAOkhV017":{"d":[{"t":900,"v":["M",300,553,"L",400,603,"L",400,603,"L",300,553,"L",300,553,"Z"],"e":[0,0,0.155,1.005]},{"t":1300,"v":["M",300,443,"L",400,493,"L",400,603,"L",300,553,"L",300,443,"Z"]}]},"e4HvnAOkhV018":{"d":[{"t":500,"v":["M",498,552,"L",600,603,"L",600,603,"L",500,553,"L",498,552,"Z"],"e":[0,0,0.155,1.005]},{"t":900,"v":["M",498,392,"L",600,443,"L",600,603,"L",496,551,"L",498,392,"Z"]}]},"e4HvnAOkhV019":{"transform":{"data":{"t":{"x":-400,"y":-443}},"keys":{"o":[{"t":900,"v":{"x":400,"y":553,"type":"corner"},"e":[0,0,0.155,1.005]},{"t":1300,"v":{"x":400,"y":443,"type":"corner"}}]}},"opacity":[{"t":800,"v":0},{"t":900,"v":1}]},"e4HvnAOkhV020":{"d":[{"t":500,"v":["M",700,553,"L",600,603,"L",600,603,"L",700,553,"L",700,553,"Z"],"e":[0,0,0.155,1.005]},{"t":900,"v":["M",700,393,"L",600,443,"L",600,603,"L",700,553,"L",700,393,"Z"]}]},"e4HvnAOkhV021":{"transform":{"data":{"t":{"x":-600,"y":-393}},"keys":{"o":[{"t":500,"v":{"x":600,"y":553,"type":"corner"},"e":[0,0,0.155,1.005]},{"t":900,"v":{"x":600,"y":393,"type":"corner"}}]}},"opacity":[{"t":400,"v":0},{"t":500,"v":1}]},"e4HvnAOkhV022":{"d":[{"t":900,"v":["M",500,553,"L",400,603,"L",400,603,"L",500,553,"L",500,553,"Z"],"e":[0,0,0.155,1.005]},{"t":1300,"v":["M",500,443,"L",400,493,"L",400,603,"L",500,553,"L",500,443,"Z"]}]},"e4HvnAOkhV023":{"d":[{"t":1400,"v":["M",602,602,"L",500,653,"L",500,653,"L",602,602,"L",602,602,"Z"],"e":[0,0,0.155,1.005]},{"t":1900,"v":["M",602,542,"L",500,593,"L",500,653,"L",602,602,"L",602,542,"Z"]}]},"e4HvnAOkhV024":{"d":[{"t":1400,"v":["M",398,602,"L",500,653,"L",500,653,"L",398,602,"L",398,602,"Z"],"e":[0,0,0.155,1.005]},{"t":1900,"v":["M",398,542,"L",500,593,"L",500,653,"L",398,602,"L",398,542,"Z"]}]},"e4HvnAOkhV025":{"transform":{"data":{"t":{"x":-500,"y":-543}},"keys":{"o":[{"t":1400,"v":{"x":500,"y":603,"type":"corner"},"e":[0,0,0.155,1.005]},{"t":1900,"v":{"x":500,"y":543,"type":"corner"}}]}},"opacity":[{"t":1300,"v":0},{"t":1400,"v":1}]},"e4HvnAOkhV027":{"transform":{"data":{"t":{"x":-503.303085,"y":-46.964296}},"keys":{"o":[{"t":2500,"v":{"x":500,"y":46.964297,"type":"corner"}},{"t":2700,"v":{"x":500,"y":256.964297,"type":"cusp","end":{"x":531.676643,"y":170.474224}},"e":[0.09,0.26,0.91,0.7]},{"t":3100,"v":{"x":600,"y":354.059034,"type":"cusp","start":{"x":581.430747,"y":213.235097},"end":{"x":550,"y":243}},"e":[0.09,0.26,0.91,0.7]},{"t":3500,"v":{"x":400,"y":412.168761,"type":"cusp","start":{"x":457.899337,"y":261.539046},"end":{"x":445.318643,"y":323.304751}},"e":[0.09,0.26,0.91,0.7]},{"t":3900,"v":{"x":500,"y":512.601433,"type":"cusp","start":{"x":488.782192,"y":371.6087},"end":{"x":578.263275,"y":430.206933}},"e":[0.09,0.26,0.91,0.7]},{"t":4300,"v":{"x":693.163956,"y":684.787977,"type":"cusp","start":{"x":613.038643,"y":423}},"e":[0.01,0.495,0.475,0.985]},{"t":4470,"v":{"x":693.78187,"y":695.525405,"type":"cusp","start":{"x":693.921803,"y":687.619684},"end":{"x":693.641939,"y":687.35955}},"e":[0.52,0,1,0.49]},{"t":4620,"v":{"x":693.163956,"y":684.787977,"type":"cusp","start":{"x":693.900607,"y":695.993197}}}],"r":[{"t":2700,"v":0},{"t":3100,"v":93.677832},{"t":3500,"v":-0.758426},{"t":3900,"v":91.064072},{"t":4300,"v":181.171243}],"s":[{"t":3900,"v":{"x":0.8,"y":0.8}},{"t":4300,"v":{"x":0.15,"y":0.15}}]}},"opacity":[{"t":2500,"v":0},{"t":2550,"v":1}]},"e4HvnAOkhV031":{"transform":{"data":{"t":{"x":-503.303085,"y":-46.964296}},"keys":{"o":[{"t":2500,"v":{"x":500,"y":46.964297,"type":"corner"}},{"t":2700,"v":{"x":500,"y":256.964297,"type":"cusp","end":{"x":531.676643,"y":170.474224}},"e":[0.09,0.26,0.91,0.7]},{"t":3100,"v":{"x":600,"y":354.059034,"type":"cusp","start":{"x":581.430747,"y":213.235097},"end":{"x":550,"y":243}},"e":[0.09,0.26,0.91,0.7]},{"t":3500,"v":{"x":400,"y":412.168761,"type":"cusp","start":{"x":457.899337,"y":261.539046},"end":{"x":445.318643,"y":323.304751}},"e":[0.09,0.26,0.91,0.7]},{"t":3900,"v":{"x":500,"y":512.601433,"type":"cusp","start":{"x":488.782192,"y":371.6087},"end":{"x":578.263275,"y":430.206933}},"e":[0.09,0.26,0.91,0.7]},{"t":4300,"v":{"x":693.163956,"y":684.787977,"type":"cusp","start":{"x":613.038643,"y":423}},"e":[0.01,0.495,0.475,0.985]},{"t":4470,"v":{"x":693.78187,"y":695.525405,"type":"cusp","start":{"x":693.921803,"y":687.619684},"end":{"x":693.641939,"y":687.35955}},"e":[0.52,0,1,0.49]},{"t":4620,"v":{"x":693.163956,"y":684.787977,"type":"cusp","start":{"x":693.900607,"y":695.993197}}}],"r":[{"t":2700,"v":0},{"t":3100,"v":93.677832},{"t":3500,"v":-0.758426},{"t":3900,"v":91.064072},{"t":4300,"v":181.171243}],"s":[{"t":3900,"v":{"x":0.8,"y":0.8}},{"t":4300,"v":{"x":0.15,"y":0.15}}]}},"opacity":[{"t":2500,"v":0},{"t":2550,"v":1}]},"e4HvnAOkhV037":{"transform":{"data":{"t":{"x":-503.303085,"y":-46.964296}},"keys":{"o":[{"t":2500,"v":{"x":500,"y":46.964297,"type":"corner"}},{"t":2700,"v":{"x":500,"y":256.964297,"type":"cusp","end":{"x":531.676643,"y":170.474224}},"e":[0.09,0.26,0.91,0.7]},{"t":3100,"v":{"x":600,"y":354.059034,"type":"cusp","start":{"x":581.430747,"y":213.235097},"end":{"x":550,"y":243}},"e":[0.09,0.26,0.91,0.7]},{"t":3500,"v":{"x":400,"y":412.168761,"type":"cusp","start":{"x":457.899337,"y":261.539046},"end":{"x":445.318643,"y":323.304751}},"e":[0.09,0.26,0.91,0.7]},{"t":3900,"v":{"x":500,"y":512.601433,"type":"cusp","start":{"x":488.782192,"y":371.6087},"end":{"x":578.263275,"y":430.206933}},"e":[0.09,0.26,0.91,0.7]},{"t":4300,"v":{"x":693.163956,"y":684.787977,"type":"cusp","start":{"x":613.038643,"y":423}},"e":[0.01,0.495,0.475,0.985]},{"t":4470,"v":{"x":693.78187,"y":695.525405,"type":"cusp","start":{"x":693.921803,"y":687.619684},"end":{"x":693.641939,"y":687.35955}},"e":[0.52,0,1,0.49]},{"t":4620,"v":{"x":693.163956,"y":684.787977,"type":"cusp","start":{"x":693.900607,"y":695.993197}}}],"r":[{"t":2700,"v":0},{"t":3100,"v":93.677832},{"t":3500,"v":-0.758426},{"t":3900,"v":91.064072},{"t":4300,"v":181.171243}],"s":[{"t":3900,"v":{"x":0.8,"y":0.8}},{"t":4300,"v":{"x":0.15,"y":0.15}}]}},"opacity":[{"t":2500,"v":0},{"t":2550,"v":1}]}},"s":"MDIA1ZGExNDg4YDTliOTg4NzlhAOGY5NTk0NDgK2MDViNTY1NjHU2UjUyNDg4YKThmOTg4YlY4UOTlhOGY5NTkK0NDg2MDU3NTTI0ODhmOWE4YNkc5ODg3OWE4FZjk1OTQ5OTQG4NjA1NjUyNDHg4YzhmOTI5MEjQ4NjA1NzUyBNDg4NzkyOWES4Yjk4OTQ4NzHlhRThiNDhGNFjA4Yzg3OTI5IOThiNTI0OFMJ5OTk2TjhiOGOI4YTQ4NjA1NJzUyNDg4Yzk2MOTk0ODYwNTcW1Nlk1NmEz"}],"options":"MDKAxZTllNDU5NXjk3ODQ5NTk3INDU1ZDQ1OTYC4Njk1OTI4ZjBhmNDU0ZjQ1OYTY4Njk1OTI4PZjhmNDU1ZFUQ1NTU4V2Ew"},'https://cdn.svgator.com/ply/','__SVGATOR_PLAYER__','2025-04-07',window,document,'script','http://www.w3.org/2000/svg','http://www.w3.org/1999/xlink')
]]></script>
</svg>
